<?xml version="1.0" encoding="utf-8"?>
<!-- Generator: Adobe Illustrator 18.1.1, SVG Export Plug-In . SVG Version: 6.00 Build 0)  -->
<svg version="1.1" id="Layer_1" xmlns="http://www.w3.org/2000/svg" xmlns:xlink="http://www.w3.org/1999/xlink" x="0px" y="0px"
	 viewBox="0 0 156.2 237.3" enable-background="new 0 0 156.2 237.3" xml:space="preserve">
<g>
	<path fill-rule="evenodd" clip-rule="evenodd" fill="#DDA1B7" d="M78.1,237.3c43,0,78.1-2.4,78.1-5.2c0-2.9-35.1-5.2-78.1-5.2
		S0,229.2,0,232.1C0,235,35.1,237.3,78.1,237.3z"/>
	<path fill-rule="evenodd" clip-rule="evenodd" fill="#9E9E9F" d="M39.5,64.3c-12.1,6.7-11.8,30.5-9,37.5c1.6,3.8,4.9,4.6,6.9-1.7
		c1.3-4.2-1-17.5,5.9-21.3C47.7,76.4,39.5,64.3,39.5,64.3z"/>
	<path fill-rule="evenodd" clip-rule="evenodd" fill="#807E7D" d="M36.3,78.3c-3.9,4.1-4.1,7.8-4.1,13.2l2-4.2l2.4-6.3L36.3,78.3z"
		/>
	<path fill-rule="evenodd" clip-rule="evenodd" fill="#373334" d="M71.9,13.6c0.5,0.1,4.7,1.3,5.3,2.7c0.7,1.4,1.9,9.3,1.7,9
		c-0.2-0.4-9.2-9.9-8.7-10.1C70.7,15,71.9,13.6,71.9,13.6z"/>
	<path fill-rule="evenodd" clip-rule="evenodd" fill="#F9D9C7" d="M81,29.2c-1.1-2.1-7.3-16.3-12.5-16.1c-5.1,0.2-22.1,7.2-21.8,9.6
		c0.3,2.4,8.8,17.1,8.8,17.1l5,9.4c0,0,24.1,0.8,24.1-0.5S81,29.2,81,29.2z"/>
	<path fill-rule="evenodd" clip-rule="evenodd" fill="#EFC4AE" d="M56.1,40.8l4.4,8.4c0,0,24.1,0.8,24.1-0.5c0-0.7-0.9-5.6-1.9-10.3
		l-3.1-2.9c0,0-13.3,2.1-13.8,2.1c-0.5,0.1-1.8,4.5-2.2,5.3c-0.4,0.8-6.7-9.3-6.7-9.3L54.7,33l0.5,2.8L56.1,40.8z"/>
	<path fill-rule="evenodd" clip-rule="evenodd" fill="#F4BEA6" d="M69.3,27.6c1.3,1,12,0.7,12,0.7C80,36.3,69.5,37.8,69.3,27.6z"/>
	<path fill-rule="evenodd" clip-rule="evenodd" fill="#A44B3C" d="M69,38c1.6,3.9,10.1-0.8,11.3-0.8C76.6,39.4,68.9,42.6,69,38z"/>
	<path fill-rule="evenodd" clip-rule="evenodd" fill="#3E3B3A" d="M57.1,33.7l-2,2.3l-2.4-1.2l5,9L42.5,31.5L42,22l2.3-1.8l-0.8-2.7
		L48.8,8c10.7-1.5,20.9-1.6,29.7-8c1.8,3.8,1.5,11.3-4.3,16.5c-5.8,5.2-23.9,5.7-23.8,6.2C50.5,23.4,57.1,33.7,57.1,33.7z"/>
	<path fill-rule="evenodd" clip-rule="evenodd" fill="#3E3B3A" d="M66.1,26.3c1.2,5.3-3.3,6.6-7.1,1.9C59,28.1,59,28.1,58.9,28
		C59,28,59,28,59.1,28.1C62.7,30.9,65.9,32.5,66.1,26.3z"/>
	<path fill-rule="evenodd" clip-rule="evenodd" fill="#3E3B3A" d="M77.5,23.9c1.7,3-3,4.2-4.9,1.1c-0.1-0.1-0.1-0.1-0.1-0.2
		c0.1,0.1,0.1,0.1,0.2,0.2C74.7,26.4,77.8,27.5,77.5,23.9z"/>
	<path fill-rule="evenodd" clip-rule="evenodd" fill="#3E3B3A" d="M115.8,220.4c0.2,0.4,1.2,3.4,5,5.8c3.8,2.4,14.4,3.8,14.3,4.5
		c-0.8,4.7-16.3,2.4-19.5,2.1l-1.6-0.7c0,0-0.1,0.7-0.2,0.8s-6.7,0.3-6.8,0c-0.1-0.4-0.7-2.1-0.4-4l1.2-7L115.8,220.4z"/>
	<path fill-rule="evenodd" clip-rule="evenodd" fill="#3E3B3A" d="M45.4,219.9l2.9-0.2c0,0,3.2,4.1,6.3,7.5c3.1,3.5,4.5,5,2.2,6.2
		c-1.7,0.9-16.2,0.5-18.1-0.8c0,0,1-6.4,1-7.1c0.1-0.7,1.6-4.3,1.9-4.5C41.9,220.9,45.4,219.9,45.4,219.9z"/>
	<path fill-rule="evenodd" clip-rule="evenodd" fill="#495258" d="M62.8,135.1c-3.6,21.8-11.1,61.2-23.2,87.3
		c-0.8,1.9-0.5,2.4-0.1,2.5c4.7-0.2,8.4,0.1,13.1-0.2c9.3-16.9,26.6-90.7,27-90.3c16,13.5,28,58.5,26.4,90.6
		c-0.1,1.2,15.1,0.2,15.1,0.2c-0.5-40.2-11.2-70.7-27.7-107.9c-3.5-8-16.6-1.2-26.3,0.5l-4.6-2.5C60.2,121.9,60.2,128.8,62.8,135.1z
		"/>
	<path fill-rule="evenodd" clip-rule="evenodd" fill="#343C42" d="M87.5,116.8c1.5,1.8,3,4,8.4,6.7c0,0,0.5,1.2,1,2.4
		c-2.6-0.8-11.3-5.8-10.7-8.3L87.5,116.8z"/>
	<path fill-rule="evenodd" clip-rule="evenodd" fill="#343C42" d="M70.7,118.8c0,0-0.8,1.7-4.7,5c-3.9,3.3-4.6,3.7-4.6,3.7l0.9,0.7
		c0,0,3.3-1.6,6.6-4.6c3.3-2.9,3-4,3-4L70.7,118.8z"/>
	<path fill-rule="evenodd" clip-rule="evenodd" fill="#9E9E9F" d="M59.7,94.2c0.2,2.4-4.2,28.2,2.2,25.4c4.5-2,33.4,4.9,33.9-3
		l-0.5-23.7L59.7,94.2z"/>
	<path fill-rule="evenodd" clip-rule="evenodd" fill="#939292" d="M66.8,119.2c-1-1.2-2.5-2.6-2.5-3c-0.1-0.6,24.6-3.7,31.5-4.4
		l-0.1-1.3l-37.3,2.7c0.1,4,0.9,6.9,3,6.6c0.2-0.1,0.4-0.1,0.5-0.2C62.8,119.2,64.5,119.1,66.8,119.2z"/>
	<path fill-rule="evenodd" clip-rule="evenodd" fill="#3E3B3A" d="M58.3,86.4c-1.3,1.6-4.2,33.8-1.2,36.1l0.9,0.2
		c0,0,0.1-11.1,0.7-17c0.7-5.9,1.9-20,1.9-20L58.3,86.4z"/>
	<path fill-rule="evenodd" clip-rule="evenodd" fill="#3E3B3A" d="M83.7,96.9c-0.2,2-21.2,26.7-24.9,26.1l-0.8-0.5
		c0,0,7.9-7.8,11.6-12.4c3.8-4.7,12.9-15.3,12.9-15.3L83.7,96.9z"/>
	<polygon fill-rule="evenodd" clip-rule="evenodd" fill="#3E3B3A" points="81.7,84.3 87,115.6 81.8,125.4 74.7,117 74.1,85.5 	"/>
	<polygon fill-rule="evenodd" clip-rule="evenodd" fill="#383433" points="86.2,111.1 86.5,112.8 86.3,113 74.7,114.5 74.6,112 	"/>
	<polygon fill-rule="evenodd" clip-rule="evenodd" fill="#727272" points="124.8,42.3 34.6,47.9 33.6,48.3 38.6,114.7 130.6,107.9 
		133,107.1 	"/>
	
		<rect x="36.9" y="44.2" transform="matrix(-0.9972 7.487950e-002 -7.487950e-002 -0.9972 173.0569 148.3964)" fill="#E94954" width="93.7" height="66.5"/>
	<path fill-rule="evenodd" clip-rule="evenodd" fill="#F9D9C7" d="M53.6,32.9c-2.1-0.1-5.9-1-6.4,1.3c-0.5,2.3,2.8,6.5,5.6,7.3
		c2.9,0.8,4.4-2.1,4.4-2.1L53.6,32.9z"/>
	<path fill-rule="evenodd" clip-rule="evenodd" fill="#F9D9C7" d="M129.5,52.1c-2.3-1-5.7-2.3-5.6-0.7c0.1,1.9,4.2,3.8,5.6,4.2
		C130.8,56.1,132.2,53.3,129.5,52.1z"/>
	<path fill-rule="evenodd" clip-rule="evenodd" fill="#F9D9C7" d="M128.7,55.1c-2.5-0.1-6.1-0.1-5.5,1.3c0.8,1.8,5.3,2.1,6.8,1.9
		C131.3,58.3,131.7,55.2,128.7,55.1z"/>
	<path fill-rule="evenodd" clip-rule="evenodd" fill="#F9D9C7" d="M129.8,58.4c-2.5-0.1-6.1-0.1-5.5,1.3c0.8,1.8,5.3,2.1,6.8,1.9
		C132.4,61.7,132.7,58.5,129.8,58.4z"/>
	<path fill-rule="evenodd" clip-rule="evenodd" fill="#F9D9C7" d="M129.8,61.6c-2.1-0.1-5.1-0.1-4.5,1.2c0.7,1.5,4.4,1.7,5.7,1.6
		C131.9,64.3,132.2,61.7,129.8,61.6z"/>
	<path fill-rule="evenodd" clip-rule="evenodd" fill="#3E3B3A" d="M65,24c-0.7,0.1-4.2,1-6.7,2.1c-2.5,1.2-2.8,1.2-2.8,1.2L54.8,26
		c0,0,4-1.9,6.4-2.9c2.4-1,3-1,3-1L65,24z"/>
	<path fill-rule="evenodd" clip-rule="evenodd" fill="#3E3B3A" d="M70.5,22.7c0.4-0.2,2.6-1.2,4.4-1.3c1.8-0.2,1.9-0.3,1.9-0.3
		l-0.1-1.4c0,0-2.9,0.2-4.4,0.5c-1.6,0.3-1.9,0.5-1.9,0.5L70.5,22.7z"/>
	<path fill-rule="evenodd" clip-rule="evenodd" fill="#F9D9C7" d="M35,80.9c2.3-1,5.7-2.3,5.6-0.7c-0.1,1.9-4.2,3.8-5.6,4.2
		C33.7,84.8,32.3,82,35,80.9z"/>
	<path fill-rule="evenodd" clip-rule="evenodd" fill="#F9D9C7" d="M35.8,83.8c2.5-0.1,6.1-0.1,5.5,1.3c-0.8,1.8-5.3,2.1-6.8,1.9
		C33.2,87.1,32.8,84,35.8,83.8z"/>
	<path fill-rule="evenodd" clip-rule="evenodd" fill="#F9D9C7" d="M34.8,87.2c2.5-0.1,6.1-0.1,5.5,1.3c-0.8,1.8-5.3,2.1-6.8,1.9
		C32.2,90.5,31.8,87.3,34.8,87.2z"/>
	<path fill-rule="evenodd" clip-rule="evenodd" fill="#F9D9C7" d="M34.8,90.3c2.1-0.1,5.1-0.1,4.5,1.2c-0.7,1.5-4.4,1.7-5.7,1.6
		C32.6,93.1,32.3,90.5,34.8,90.3z"/>
	
		<text transform="matrix(0.9985 -5.435120e-002 5.435120e-002 0.9985 48.1677 70.6446)" fill="#FFFFFF" font-family="'ProductSans-Regular'" font-size="16">OPENIN</text>
	
		<text transform="matrix(0.9985 -5.435120e-002 5.435120e-002 0.9985 104.6281 67.5714)" fill="#FFFFFF" font-family="'ProductSans-Regular'" font-size="16">G</text>
	
		<text transform="matrix(0.9985 -5.435120e-002 5.435120e-002 0.9985 48.542 103.1236)" fill="#FFFFFF" font-family="'ProductSans-Regular'" font-size="26">SO</text>
	
		<text transform="matrix(0.9985 -5.435120e-002 5.435120e-002 0.9985 83.6682 101.2117)" fill="#FFFFFF" font-family="'ProductSans-Regular'" font-size="26">ON</text>
	<path fill-rule="evenodd" clip-rule="evenodd" fill="#3F4E55" d="M80,130.6c-8.6,18.3-18.7,69.5-31.6,89.2c-1.4,2.2-3,3.9-4.6,5
		c2.9,0,5.5,0.1,8.7-0.1c0.1,0,0.2,0,0.2,0c9.3-16.9,26.6-90.7,27-90.3c16,13.5,28,58.5,26.4,90.6c0,0.2,0.4,0.3,1,0.4
		c1.9,0.2,6.1,0.2,9.4,0c-1.2-1.1-2.7-2.7-3.7-4.5c-0.5-0.9-1-1.9-1.2-2.9C107.9,198.3,106.5,164.1,80,130.6z"/>
	<path fill-rule="evenodd" clip-rule="evenodd" fill="#3C4348" d="M67.6,130.6v-0.2h-0.2v0.2H67.6z M67.6,132v-0.2h-0.2v0.2H67.6z
		 M67.5,133.3v-0.2h-0.2v0.2H67.5z M67.4,134.7v-0.2h-0.2v0.2H67.4z M67.3,136.1v-0.2H67v0.2H67.3z M67.2,137.4v-0.2h-0.2v0.2H67.2z
		 M67,138.8v-0.2h-0.2v0.2H67z M66.9,140.1v-0.2h-0.2v0.2H66.9z M66.7,141.5v-0.2h-0.2v0.2H66.7z M66.5,142.9l-0.2-0.1l0.1-0.2
		l0.2,0.1L66.5,142.9z M66.3,144.2l0.1-0.2l-0.2-0.1l-0.1,0.2L66.3,144.2z M66.1,145.6l0.1-0.2l-0.2-0.1l-0.1,0.2L66.1,145.6z
		 M65.9,146.9l-0.2-0.1l0.1-0.2l0.2,0.1L65.9,146.9z M65.6,148.3l0.1-0.2l-0.2-0.1l-0.1,0.2L65.6,148.3z M65.4,149.6l0.1-0.2
		l-0.2-0.1l-0.1,0.2L65.4,149.6z M65.2,151l0.1-0.2l-0.2-0.1l-0.1,0.2L65.2,151z M64.9,152.3l0.1-0.2l-0.2-0.1l-0.1,0.2L64.9,152.3z
		 M64.7,153.7l0.1-0.2l-0.2-0.1l-0.1,0.2L64.7,153.7z M64.4,155l0.1-0.2l-0.2-0.1l-0.1,0.2L64.4,155z M64.2,156.3l0.1-0.2L64,156
		l-0.1,0.2L64.2,156.3z M63.9,157.7l-0.2-0.1l0.1-0.2l0.2,0.1L63.9,157.7z M63.6,159l0.1-0.2l-0.2-0.1l-0.1,0.2L63.6,159z
		 M63.3,160.3l0.1-0.2l-0.2-0.1l-0.1,0.2L63.3,160.3z M63,161.7l-0.2-0.1l0.1-0.2l0.2,0.1L63,161.7z M62.7,163l0.1-0.2l-0.2-0.1
		l-0.1,0.2L62.7,163z M62.4,164.3l0.1-0.2l-0.2-0.1l-0.1,0.2L62.4,164.3z M62.1,165.7l0.1-0.2l-0.2-0.1l-0.1,0.3H62.1z M61.8,167
		l0.1-0.2l-0.2-0.1l-0.1,0.2L61.8,167z M61.5,168.3l0.1-0.2l-0.2-0.1l-0.1,0.2L61.5,168.3z M61.2,169.7l0.1-0.2l-0.2-0.1l-0.1,0.2
		L61.2,169.7z M60.8,171l0.1-0.2l-0.2-0.1l-0.1,0.2L60.8,171z M60.5,172.3l-0.2-0.1l0.1-0.2l0.2,0.1L60.5,172.3z M60.2,173.7
		l0.1-0.2l-0.2-0.1l-0.1,0.2L60.2,173.7z M59.8,175l0.1-0.2l-0.2-0.1l-0.1,0.2L59.8,175z M59.5,176.3l0.1-0.2l-0.2-0.1l-0.1,0.2
		L59.5,176.3z M59.1,177.6l0.1-0.2l-0.2-0.1l-0.1,0.2L59.1,177.6z M58.8,179l-0.2-0.1l0.1-0.2l0.2,0.1L58.8,179z M58.4,180.3
		l0.1-0.2l-0.2-0.1l-0.1,0.2L58.4,180.3z M58.1,181.6l-0.2-0.1l0.1-0.2l0.2,0.1L58.1,181.6z M57.7,182.9l0.1-0.2l-0.2-0.1l-0.1,0.2
		L57.7,182.9z M57.3,184.2l0.1-0.2l-0.2-0.1l-0.1,0.2L57.3,184.2z M57,185.6l0.1-0.2l-0.2-0.1l-0.1,0.2L57,185.6z M56.5,186.8
		l0.1-0.2l-0.2-0.1l-0.1,0.2L56.5,186.8z M56.2,188.2l0.1-0.2l-0.2-0.1l-0.1,0.2L56.2,188.2z M55.8,189.5l-0.2-0.1l0.1-0.2l0.2,0.1
		L55.8,189.5z M55.4,190.8l0.1-0.2l-0.2-0.1l-0.1,0.2L55.4,190.8z M55,192.1l0.1-0.2l-0.2-0.1l-0.1,0.2L55,192.1z M54.7,193.4
		l0.1-0.2l-0.2-0.1l-0.1,0.2L54.7,193.4z M54.2,194.7l0.1-0.2l-0.2-0.1l-0.1,0.2L54.2,194.7z M53.8,196l0.1-0.2l-0.2-0.1l-0.1,0.2
		L53.8,196z M53.4,197.3l0.1-0.2l-0.2-0.1l-0.1,0.2L53.4,197.3z M53,198.6l0.1-0.2l-0.2-0.1l-0.1,0.2L53,198.6z M52.6,200l-0.2-0.1
		l0.1-0.2l0.2,0.1L52.6,200z M52.2,201.2l0.1-0.2l-0.2-0.1l-0.1,0.2L52.2,201.2z M51.7,202.6l0.1-0.2l-0.2-0.1l-0.1,0.2L51.7,202.6z
		 M51.3,203.8c0-0.1,0.1-0.1,0.1-0.2l-0.2-0.1l-0.1,0.2L51.3,203.8z M50.8,205.1l0.1-0.2l-0.2-0.1l-0.1,0.2L50.8,205.1z M50.4,206.4
		l0.1-0.2l-0.2-0.1l-0.1,0.2L50.4,206.4z M49.9,207.7l0.1-0.2l-0.2-0.1l-0.1,0.2L49.9,207.7z M49.4,209l0.1-0.2l-0.2-0.1l-0.1,0.2
		L49.4,209z M49,210.3L49,210l-0.2-0.1l-0.1,0.2L49,210.3z M48.5,211.5l0.1-0.2l-0.2-0.1l-0.1,0.2L48.5,211.5z M47.9,212.8l0.1-0.2
		l-0.2-0.1l-0.1,0.2L47.9,212.8z M47.4,214.1l0.1-0.2l-0.2-0.1c0,0.1-0.1,0.1-0.1,0.2L47.4,214.1z M47,215.4l0.1-0.2l-0.2-0.1
		l-0.1,0.2L47,215.4z M46.5,216.6l0.1-0.2l-0.2-0.1l-0.1,0.2L46.5,216.6z M45.9,217.9l0.1-0.2l-0.2-0.1l-0.1,0.2L45.9,217.9z
		 M45.4,219.2l0.1-0.2l-0.2-0.1l-0.1,0.2L45.4,219.2z M44.9,220.5l0.1-0.2l-0.2-0.1l-0.1,0.2L44.9,220.5z M44.4,221.7l0.1-0.2
		l-0.2-0.1l-0.1,0.2L44.4,221.7z M43.9,222.9l0.1-0.2l-0.2-0.1l-0.1,0.2L43.9,222.9z M67.6,129.2h-0.2V129h0.2V129.2z"/>
	<path fill-rule="evenodd" clip-rule="evenodd" fill="#373334" d="M50.4,22.7c-0.1-0.5,17.4-1.1,23.5-5.9c0.1-0.1,0.2-0.2,0.4-0.3
		C80,11.3,80.3,3.8,78.5,0c0,0-5.6,7.3-5.9,7.5c-0.4,0.2,3.3-0.6,3.3-0.6s-0.2,3.8-6.7,6.1c-3.2,1.2-5.6,1.5-7.6,1.6
		c-2.1,0.1-3.6-0.2-4.3-0.3c-0.7-0.1,0.4,0.5,1.8,1.2c1.4,0.7,3.1,1.5,3.1,1.5s-0.6,0.8-5.5,1.5c-2.1,0.3-4.2,0.6-6,0.9
		c-2.2,0.4-3.8,0.6-3.8,0.6l0.9,1.2l1.8,2.3l-1.3-0.1c0,0,7,9.9,7.1,10.3c0.1,0.1-0.2,0.5-0.6,0.8l0.7,1.2l1.8-2.1
		C57.1,33.7,50.5,23.4,50.4,22.7z"/>
	<path fill-rule="evenodd" clip-rule="evenodd" fill="#F4BEA6" d="M52.9,33.8c-0.8-0.1-4.2-0.2-4.5,0.9c-0.3,1.1,3.1,4.9,4.4,5.2
		c1.3,0.3,2.4-0.7,2.3-0.9c-0.1-0.2-1.3-1.7-1.3-1.7s-1.3-0.6-1-1.1s0.8-0.4,0.8-0.9C53.8,34.8,52.9,33.8,52.9,33.8z"/>
	<path fill-rule="evenodd" clip-rule="evenodd" fill="#FFFFFF" d="M77.7,139.6c0.3,0.3,2.9,4.3,2.9,4.3l-5.5,6.4l-4.6-1.5
		L77.7,139.6z"/>
	<path fill-rule="evenodd" clip-rule="evenodd" fill="#EC7942" d="M58.7,132.2c-0.8,0.3-3.2,1.8-5,4.1c-1.8,2.2-2.4,4.7-3.3,5.3
		c-1,0.6-4.4-1-3.9-2.9c0.4-1.5,8.7-10.4,9-10.3C55.8,128.6,58.7,132.2,58.7,132.2z"/>
	<path fill-rule="evenodd" clip-rule="evenodd" fill="#EC7942" d="M58.6,122.5c0.5,0.3,1.8,1.2,1.9,1.7c0.5,1.3-1.2,2.9-3,5
		c-2,2.2-3.7,4.2-5.5,4.2c-0.5,0-1.6-1-2-1.3C46.8,129.8,54.7,119.9,58.6,122.5z"/>
	<path fill-rule="evenodd" clip-rule="evenodd" fill="#E8E8EA" d="M85.4,136.3c-0.1,0.2-0.8-1.6-4.1-1.3
		c-4.6,0.4-12.4-3.7-20.7-10.7c-2.1-1.4-5.2,1-6.6,2.5c-2.3,2.6-3.4,5.8-1.9,6.8c7.2,4.2,13.8,14.6,13.9,16.7
		c0.1,3.2,1.9,4.3,1.9,4.3C74.1,148.4,85.7,136.4,85.4,136.3z"/>
	<path fill-rule="evenodd" clip-rule="evenodd" fill="#EC7942" d="M84.9,135.8c3.2,2.2,1.4,7.4-3.7,13.1c-5.1,5.6-9.8,7.9-13,5.8
		c-3.2-2.2-4.5-6.9,1.8-14.2C76.4,133.3,81.8,133.6,84.9,135.8z"/>
	<path fill-rule="evenodd" clip-rule="evenodd" fill="#B7B8BA" d="M85.4,136.3c3,2,1.4,7.6-3.2,12.8c-4.7,5.2-10.8,7.8-13.8,5.8
		c-3-2-1.6-7.8,3-13C76.1,136.7,82.4,134.3,85.4,136.3z"/>
	<path fill-rule="evenodd" clip-rule="evenodd" fill="#CFD1D2" d="M78.2,141.7c1,0.7,0.5,2.5-1,4.2c-1.5,1.7-3.5,2.5-4.5,1.9
		c-1-0.7-0.5-2.5,1-4.2C75.2,141.9,77.2,141.1,78.2,141.7z"/>
	<path fill-rule="evenodd" clip-rule="evenodd" fill="#7E7E80" d="M77,140.4l-1.8-1.9c-1.3,0.9-2.5,2.1-3.8,3.3
		c-0.8,1-1.6,1.9-2.2,2.9l2.5,2.2l0.8,0.7c-0.3-0.2-0.4-0.7-0.4-1.2c0.1-0.8,0.6-1.9,1.5-3c0.7-0.7,1.4-1.3,2.1-1.6
		c1-0.5,1.9-0.5,2.4-0.2c0.1,0,0.1,0.1,0.1,0.1L77,140.4z"/>
	<path fill-rule="evenodd" clip-rule="evenodd" fill="#545E64" d="M96.6,127.9c-1.8-0.8-5.4,0.1-4.5,1.3c7.7,10.1,19.9,55.1,24.4,88
		l3.4-0.8C116.2,184.6,110.2,156.9,96.6,127.9z"/>
</g>
</svg>
