<?xml version="1.0" encoding="utf-8"?>
<!-- Generator: Adobe Illustrator 18.1.1, SVG Export Plug-In . SVG Version: 6.00 Build 0)  -->
<svg version="1.1" id="Layer_1" xmlns="http://www.w3.org/2000/svg" xmlns:xlink="http://www.w3.org/1999/xlink" x="0px" y="0px"
	 viewBox="0 0 32 22.3" enable-background="new 0 0 32 22.3" xml:space="preserve">
<g>
	<path fill="#C4698B" d="M28,19.1H1.8c-1,0-1.8-0.8-1.8-1.8V1.8C0,0.8,0.8,0,1.8,0H28c1,0,1.8,0.8,1.8,1.8v15.4
		C29.8,18.3,29,19.1,28,19.1z"/>
	<path fill="#53A1D8" d="M16.9,13.5H0.5v1.3h16.4c0.4,0,0.7-0.3,0.7-0.7C17.6,13.8,17.2,13.5,16.9,13.5z"/>
	<path fill="#FFFFFF" d="M25.5,6.5h-3.8V4.2h3.8V6.5z M26.2,2.9h-5.1c-0.4,0-0.7,0.3-0.7,0.7v3.7c0,0.4,0.3,0.7,0.7,0.7h5.1
		c0.4,0,0.7-0.3,0.7-0.7V3.6C26.9,3.2,26.6,2.9,26.2,2.9z"/>
	<path fill="#FFFFFF" d="M11.7,2.9H3.5c-0.4,0-0.7,0.3-0.7,0.7c0,0.4,0.3,0.7,0.7,0.7h8.2c0.4,0,0.7-0.3,0.7-0.7
		C12.4,3.2,12.1,2.9,11.7,2.9z"/>
	<path fill="#FFFFFF" d="M8,6.5H3.5c-0.4,0-0.7,0.3-0.7,0.7c0,0.4,0.3,0.7,0.7,0.7H8c0.4,0,0.7-0.3,0.7-0.7C8.7,6.8,8.4,6.5,8,6.5z"
		/>
	<path fill="#8EC641" d="M29.7,11.8c-1-0.7-2.2-1.2-3.5-1.2c-2.9,0-5.4,2.1-5.8,4.9c-0.1,0.3-0.1,0.6-0.1,0.9c0,3.3,2.6,5.9,5.9,5.9
		c3.2,0,5.9-2.6,5.9-5.9C32.1,14.6,31.1,12.9,29.7,11.8z"/>
	<polygon fill="#FFFFFF" points="28.8,13.7 25.2,17.3 23.7,15.8 22.3,17.2 25.2,20.1 30.2,15.1 	"/>
</g>
</svg>
