<?xml version="1.0" encoding="utf-8"?>
<!-- Generator: Adobe Illustrator 18.1.1, SVG Export Plug-In . SVG Version: 6.00 Build 0)  -->
<svg version="1.1" id="Layer_1" xmlns="http://www.w3.org/2000/svg" xmlns:xlink="http://www.w3.org/1999/xlink" x="0px" y="0px"
	 viewBox="0 0 20.9 20.9" enable-background="new 0 0 20.9 20.9" xml:space="preserve">
<g>
	<polygon fill="#C1466E" points="15.3,10.5 7,15.3 7,5.6 	"/>
	<g>
		<path fill="#C1466E" d="M10.4,20.9c-0.7,0-1.4-0.1-2-0.2c-0.7-0.1-1.3-0.3-2-0.6c-0.6-0.3-1.2-0.6-1.8-1c-0.6-0.4-1.1-0.8-1.6-1.3
			c-0.5-0.5-0.9-1-1.3-1.6c-0.4-0.6-0.7-1.2-1-1.8c-0.3-0.6-0.5-1.3-0.6-2c-0.1-0.7-0.2-1.4-0.2-2s0.1-1.4,0.2-2
			c0.1-0.7,0.3-1.3,0.6-2c0.3-0.6,0.6-1.2,1-1.8c0.4-0.6,0.8-1.1,1.3-1.6s1-0.9,1.6-1.3c0.6-0.4,1.2-0.7,1.8-1
			c0.6-0.3,1.3-0.5,2-0.6c1.3-0.3,2.7-0.3,4.1,0c0.7,0.1,1.3,0.3,2,0.6c0.6,0.3,1.2,0.6,1.8,1c0.6,0.4,1.1,0.8,1.6,1.3
			c0.5,0.5,0.9,1,1.3,1.6c0.4,0.6,0.7,1.2,1,1.8c0.3,0.6,0.5,1.3,0.6,2c0.1,0.7,0.2,1.4,0.2,2c0,0.7-0.1,1.4-0.2,2
			c-0.1,0.7-0.3,1.3-0.6,2c-0.3,0.6-0.6,1.2-1,1.8c-0.4,0.6-0.8,1.1-1.3,1.6s-1,0.9-1.6,1.3c-0.6,0.4-1.2,0.7-1.8,1
			c-0.6,0.3-1.3,0.5-2,0.6C11.8,20.8,11.1,20.9,10.4,20.9z M10.4,0.9C9.8,0.9,9.2,0.9,8.6,1S7.3,1.3,6.7,1.6
			C6.2,1.8,5.6,2.1,5.1,2.5c-0.5,0.3-1,0.8-1.5,1.2S2.8,4.6,2.4,5.1C2.1,5.6,1.8,6.2,1.5,6.8C1.3,7.4,1.1,8,1,8.6
			c-0.1,0.6-0.2,1.2-0.2,1.9c0,0.6,0.1,1.3,0.2,1.9c0.1,0.6,0.3,1.2,0.5,1.8c0.2,0.6,0.5,1.1,0.9,1.7c0.4,0.5,0.8,1,1.2,1.5
			c0.4,0.4,0.9,0.8,1.5,1.2c0.5,0.3,1.1,0.6,1.7,0.9c0.6,0.2,1.2,0.4,1.8,0.5c1.2,0.2,2.5,0.2,3.8,0c0.6-0.1,1.2-0.3,1.8-0.5
			c0.6-0.2,1.1-0.5,1.7-0.9c0.5-0.3,1-0.8,1.5-1.2c0.4-0.4,0.8-0.9,1.2-1.5c0.3-0.5,0.6-1.1,0.9-1.7c0.2-0.6,0.4-1.2,0.5-1.8
			c0.1-0.6,0.2-1.2,0.2-1.9S20,9.2,19.9,8.6c-0.1-0.6-0.3-1.2-0.5-1.8c-0.2-0.6-0.5-1.1-0.9-1.7c-0.3-0.5-0.8-1-1.2-1.5
			c-0.4-0.4-0.9-0.8-1.5-1.2c-0.5-0.3-1.1-0.6-1.7-0.9c-0.6-0.2-1.2-0.4-1.8-0.5C11.7,0.9,11.1,0.9,10.4,0.9z"/>
	</g>
</g>
</svg>
