<?xml version="1.0" encoding="utf-8"?>
<!-- Generator: Adobe Illustrator 18.1.1, SVG Export Plug-In . SVG Version: 6.00 Build 0)  -->
<svg version="1.1" id="Layer_1" xmlns="http://www.w3.org/2000/svg" xmlns:xlink="http://www.w3.org/1999/xlink" x="0px" y="0px"
	 viewBox="0 0 20.2 20.9" enable-background="new 0 0 20.2 20.9" xml:space="preserve">
<path fill="#C1466E" d="M14.5,18.5V9.1C14.5,8.5,14,8,13.3,8H7.2C6.6,8,6.1,8.5,6.1,9.1v9.4H2.3V8.4l7.8-5.8l7.8,5.8v10.2L14.5,18.5
	L14.5,18.5z M8.4,18.5v-8.3h3.9v8.3H8.4z M19.7,6.9l-8.9-6.7c-0.4-0.3-1-0.3-1.4,0l-9,6.7C0.2,7.1,0,7.5,0,7.8v10.7
	c0,1.3,1,2.3,2.3,2.3h4.9h6.2h4.5c1.3,0,2.3-1,2.3-2.3V7.8C20.2,7.4,20,7.1,19.7,6.9z"/>
</svg>
