<?xml version="1.0" encoding="utf-8"?>
<!-- Generator: Adobe Illustrator 18.1.1, SVG Export Plug-In . SVG Version: 6.00 Build 0)  -->
<svg version="1.1" id="Layer_1" xmlns="http://www.w3.org/2000/svg" xmlns:xlink="http://www.w3.org/1999/xlink" x="0px" y="0px"
	 viewBox="0 0 37.3 40.8" enable-background="new 0 0 37.3 40.8" xml:space="preserve">
<g>
	<path fill-rule="evenodd" clip-rule="evenodd" fill="#DDA1B7" d="M36.8,31.2v2c0,2.3-1.8,4.1-4.1,4.1H31l1,3.5l-4.4-2.2l-2.5-1.3
		H4.5c-2.3,0-4.1-1.8-4.1-4.1v-2l1.2-0.3c0.4-0.1,0.8-0.2,1.2-0.3v1.8c0,1.4,1.1,2.5,2.5,2.5h26.4c1.4,0,2.5-1.1,2.5-2.5v-1.8
		c0.4,0.1,0.8,0.2,1.2,0.3L36.8,31.2z"/>
	<path fill-rule="evenodd" clip-rule="evenodd" fill="#DDA1B7" d="M4.5,0h28.2c2.3,0,4.1,1.8,4.1,4.1v4.5l0,0c0,0-0.1,0-0.1,0l0,0h0
		h0h0l0,0h0h0h0h0l0,0h0h0h0h0h0h0h0h0h0h0h0h0h0h0h0h0h0h0l0,0h0h0h0h0h0h0h0h0h0h0h0h0h0h0h0h0h0h0h0h0h0h0l-0.1,0h0h0h0h0h0h0h0
		h0h0h0l0,0h0h0h0h0h0h0h0h0h0h0V5c0-1.4-1.1-2.5-2.5-2.5H5.4C4,2.4,2.9,3.6,2.9,5v3h0h0h0h0h0h0h0h0l0,0h0h0h0l0,0h0h0h0h0h0h0h0h0
		h0h0h0h0h0h0h0h0h0h0h0h0h0h0h0h0h0h0h0h0h0h0h0h0h0h0h0h0h0h0l0,0.4h0h0h0h0h0h0h0h0h0h0h0h0l0,0h0h0h0h0l0,0.1h0h0l0,0h0h0h0h0
		l0,0V4C0.5,1.8,2.3,0,4.5,0z"/>
	<path fill-rule="evenodd" clip-rule="evenodd" fill="#DDA1B7" d="M19.3,7.1c3.4-2.8,9.3-3.5,13.3-1.8L32,25.1
		c-4-0.9-9.6,0.1-12.7,5.7L19.3,7.1L19.3,7.1z"/>
	<path fill-rule="evenodd" clip-rule="evenodd" fill="#DDA1B7" d="M17.9,7.1C14.4,4.3,8.6,3.6,4.6,5.4l0.6,19.7
		c4-0.9,9.6,0.1,12.7,5.7L17.9,7.1L17.9,7.1z"/>
	<path fill-rule="evenodd" clip-rule="evenodd" fill="#9B1B4A" d="M33.9,10.7c1.2,0.2,2.3,0.6,3.4,1l-1.3,17.7
		c-4.1-1.2-11-1.7-15.9,3.9c0.7-3.2,3.2-5.4,5.4-6.4c2-0.9,4.3-1.1,6.4-0.6l1.6,0.4L33.9,10.7z"/>
	<path fill-rule="evenodd" clip-rule="evenodd" fill="#9B1B4A" d="M3.4,10.7c-1.2,0.2-2.3,0.6-3.4,1l1.3,17.7
		c4.1-1.2,11-1.7,15.9,3.9c-0.7-3.2-3.2-5.4-5.4-6.4c-2-0.9-4.3-1.1-6.4-0.6l-1.6,0.4L3.4,10.7z"/>
	<path fill-rule="evenodd" clip-rule="evenodd" fill="#C1466E" d="M32.6,8.1l-0.5,16.9c-4-0.9-9.6,0.1-12.7,5.7v-8
		C26,20.6,31.1,15,32.6,8.1z"/>
	<path fill-rule="evenodd" clip-rule="evenodd" fill="#C1466E" d="M5.1,21.8L5.2,25c4-0.9,9.6,0.1,12.7,5.7v-7.6
		c-1.4,0.3-2.9,0.5-4.5,0.5C10.4,23.6,7.6,23,5.1,21.8z"/>
</g>
</svg>
