<?xml version="1.0" encoding="utf-8"?>
<!-- Generator: Adobe Illustrator 18.1.1, SVG Export Plug-In . SVG Version: 6.00 Build 0)  -->
<svg version="1.1" id="Layer_1" xmlns="http://www.w3.org/2000/svg" xmlns:xlink="http://www.w3.org/1999/xlink" x="0px" y="0px"
	 viewBox="0 0 32.5 22.9" enable-background="new 0 0 32.5 22.9" xml:space="preserve">
<g>
	<path fill="#C4698B" d="M28.5,19.6H2.3c-1,0-1.8-0.8-1.8-1.8V2.3c0-1,0.8-1.8,1.8-1.8h26.1c1,0,1.8,0.8,1.8,1.8v15.4
		C30.3,18.8,29.5,19.6,28.5,19.6z"/>
	<path fill="#FFFFFF" d="M2.3,0h26.1c1.3,0,2.3,1.1,2.3,2.3v15.4c0,1.3-1.1,2.3-2.3,2.3H2.3c-1.3,0-2.3-1.1-2.3-2.3V2.3
		C0,1.1,1.1,0,2.3,0z M2.3,1C1.6,1,1,1.6,1,2.3v15.4c0,0.7,0.6,1.3,1.3,1.3h26.1c0.7,0,1.3-0.6,1.3-1.3V2.3c0-0.7-0.6-1.3-1.3-1.3
		H2.3"/>
	<path fill="#FFFFFF" d="M26,7h-3.8V4.7H26V7z M26.7,3.4h-5.1c-0.4,0-0.7,0.3-0.7,0.7v3.7c0,0.4,0.3,0.7,0.7,0.7h5.1
		c0.4,0,0.7-0.3,0.7-0.7V4.1C27.4,3.7,27.1,3.4,26.7,3.4z"/>
	<path fill="#FFFFFF" d="M12.2,3.4H4c-0.4,0-0.7,0.3-0.7,0.7c0,0.4,0.3,0.7,0.7,0.7h8.2c0.4,0,0.7-0.3,0.7-0.7
		C12.9,3.7,12.6,3.4,12.2,3.4z"/>
	<path fill="#FFFFFF" d="M8.5,7H4C3.6,7,3.3,7.3,3.3,7.7c0,0.4,0.3,0.7,0.7,0.7h4.5c0.4,0,0.7-0.3,0.7-0.7C9.2,7.3,8.9,7,8.5,7z"/>
	<path fill="#8EC641" d="M30.2,12.3c-1-0.7-2.2-1.2-3.5-1.2c-2.9,0-5.4,2.1-5.8,4.9c-0.1,0.3-0.1,0.6-0.1,0.9c0,3.3,2.6,5.9,5.9,5.9
		c3.2,0,5.9-2.6,5.9-5.9C32.6,15.1,31.6,13.4,30.2,12.3z"/>
	<polygon fill="#FFFFFF" points="29.3,14.2 25.7,17.8 24.2,16.3 22.8,17.7 25.7,20.6 30.7,15.6 	"/>
</g>
</svg>
