<?xml version="1.0" encoding="utf-8"?>
<!-- Generator: Adobe Illustrator 18.1.1, SVG Export Plug-In . SVG Version: 6.00 Build 0)  -->
<svg version="1.1" id="Layer_1" xmlns="http://www.w3.org/2000/svg" xmlns:xlink="http://www.w3.org/1999/xlink" x="0px" y="0px"
	 viewBox="0 0 33.1 22.4" enable-background="new 0 0 33.1 22.4" xml:space="preserve">
<g>
	<path fill="#C4698B" d="M28.8,20.4H2.4c-1,0-1.9-0.9-1.9-1.9V2.4c0-1,0.8-1.9,1.9-1.9h26.5c1,0,1.9,0.9,1.9,1.9v16.1
		C30.7,19.5,29.8,20.4,28.8,20.4z"/>
	<path fill="#FFFFFF" d="M2.4,0h26.5c1.3,0,2.4,1.1,2.4,2.4v16.1c0,1.3-1.1,2.4-2.4,2.4H2.4c-1.3,0-2.4-1.1-2.4-2.4V2.4
		C0,1.1,1.1,0,2.4,0z M2.4,1C1.6,1,1,1.6,1,2.4v16.1c0,0.8,0.6,1.4,1.4,1.4h26.5c0.7,0,1.4-0.6,1.4-1.4V2.4c0-0.8-0.6-1.4-1.4-1.4
		H2.4"/>
	<path fill="#FFFFFF" d="M12.7,3.5H4.1c-0.4,0-0.7,0.3-0.7,0.7c0,0.4,0.3,0.7,0.7,0.7h8.6c0.4,0,0.7-0.3,0.7-0.7
		C13.4,3.8,13.1,3.5,12.7,3.5z"/>
	<path fill="#FFFFFF" d="M8.8,6.9H4.1c-0.4,0-0.7,0.3-0.7,0.7c0,0.4,0.3,0.7,0.7,0.7h4.7c0.4,0,0.7-0.3,0.7-0.7
		C9.5,7.2,9.2,6.9,8.8,6.9z"/>
	<path fill="#FFFFFF" d="M16.8,15.5h0.9V14c0-0.4-0.1-1-0.1-1.4h0l0.3,1l0.6,1.6H19l0.6-1.6l0.3-1h0c0,0.4-0.1,1-0.1,1.4v1.5h0.9
		v-4.2h-1L19,13.2c-0.1,0.2-0.2,0.5-0.2,0.8h0c-0.1-0.3-0.2-0.5-0.2-0.8l-0.7-1.9h-1V15.5z M11.8,15.5h1l0.3-1h1.3l0.3,1h1l-1.3-4.2
		h-1.1L11.8,15.5z M13.3,13.4c0.1-0.4,0.2-0.9,0.3-1.4h0c0.1,0.4,0.2,0.9,0.3,1.4l0.1,0.4h-0.9L13.3,13.4z M7.5,15.5h1l0.4-0.9
		C9,14.4,9.1,14.2,9.2,14h0c0.1,0.3,0.2,0.5,0.3,0.7l0.4,0.9H11l-1.2-2.1l1.1-2.1h-1l-0.3,0.8c-0.1,0.2-0.2,0.4-0.3,0.7h0
		c-0.1-0.3-0.2-0.5-0.3-0.7l-0.4-0.8H7.6l1.1,2L7.5,15.5z M3.6,15.5h2.7v-0.8H4.6v-1H6V13H4.6v-0.8h1.7v-0.8H3.6V15.5z"/>
	<path fill="#E92729" d="M26.9,10.1c0.4,0,0.8,0,1.2,0.1c0.4,0.1,0.8,0.2,1.2,0.3c0.4,0.2,0.7,0.3,1.1,0.6c0.3,0.2,0.6,0.5,0.9,0.8
		s0.5,0.6,0.8,0.9c0.2,0.3,0.4,0.7,0.6,1.1s0.3,0.8,0.3,1.2s0.1,0.8,0.1,1.2c0,0.4,0,0.8-0.1,1.2s-0.2,0.8-0.3,1.2s-0.3,0.7-0.6,1.1
		c-0.2,0.3-0.5,0.6-0.8,0.9s-0.6,0.5-0.9,0.8c-0.3,0.2-0.7,0.4-1.1,0.6c-0.4,0.2-0.8,0.3-1.2,0.3c-0.4,0.1-0.8,0.1-1.2,0.1
		c-0.4,0-0.8,0-1.2-0.1c-0.4-0.1-0.8-0.2-1.2-0.3c-0.4-0.2-0.7-0.3-1.1-0.6s-0.6-0.5-0.9-0.8c-0.3-0.3-0.5-0.6-0.8-0.9
		c-0.2-0.3-0.4-0.7-0.6-1.1s-0.3-0.8-0.3-1.2c-0.1-0.4-0.1-0.8-0.1-1.2c0-0.4,0-0.8,0.1-1.2c0.1-0.4,0.2-0.8,0.3-1.2
		s0.3-0.7,0.6-1.1s0.5-0.6,0.8-0.9c0.3-0.3,0.6-0.5,0.9-0.8c0.3-0.2,0.7-0.4,1.1-0.6c0.4-0.2,0.8-0.3,1.2-0.3
		C26.1,10.1,26.5,10.1,26.9,10.1z"/>
	
		<rect x="22.7" y="15.4" transform="matrix(-0.7071 -0.7071 0.7071 -0.7071 34.6303 46.8666)" fill="#FFFFFF" width="8.6" height="1.7"/>
	
		<rect x="22.7" y="15.4" transform="matrix(0.7071 -0.7071 0.7071 0.7071 -3.5839 23.8694)" fill="#FFFFFF" width="8.6" height="1.7"/>
</g>
</svg>
