<?xml version="1.0" encoding="utf-8"?>
<!-- Generator: Adobe Illustrator 18.1.1, SVG Export Plug-In . SVG Version: 6.00 Build 0)  -->
<svg version="1.1" id="Layer_1" xmlns="http://www.w3.org/2000/svg" xmlns:xlink="http://www.w3.org/1999/xlink" x="0px" y="0px"
	 viewBox="0 0 25 25.5" enable-background="new 0 0 25 25.5" xml:space="preserve">
<path fill-rule="evenodd" clip-rule="evenodd" fill="#FFFFFF" d="M24.8,10.6c0-0.3-0.2-0.3-0.4-0.3c-3.8,0-7.6,0-11.4,0
	c-0.3,0-0.3,0.1-0.3,0.4c0,1.4,0,2.8,0,4.2c0,0.5,0,0.5,0.4,0.5c2,0,4.1,0,6.1,0c0.3,0,0.4,0.1,0.3,0.4c-0.4,1.4-1,2.4-2.4,3.5
	c0,0,0,0,0,0C14.1,21.1,10,21,7.1,17.9c-0.7-0.8-1.2-1.7-1.6-2.7c-0.5-1.7-0.5-3.3,0-5c2-5.5,8.4-6.7,11.9-3.4C17.8,7,17.5,7,21,3.5
	c0.2-0.2,0.2-0.3,0-0.5c-3-2.6-6.5-3.5-10.4-2.9C6,0.9,2.7,4.2,1.4,7c-1.8,3.4-1.8,8.1,0,11.4c0.8,1.7,1.9,3.1,3.4,4.2
	c3.5,2.7,7.4,3.4,11.7,2.4c1.8-0.5,3.4-1.3,4.8-2.6c0,0,0,0,0,0c0.8-0.7,1.4-1.5,2-2.4C24.9,17.1,25.2,13.9,24.8,10.6z"/>
</svg>
