<?xml version="1.0" encoding="utf-8"?>
<!-- Generator: Adobe Illustrator 18.1.1, SVG Export Plug-In . SVG Version: 6.00 Build 0)  -->
<svg version="1.1" id="Layer_1" xmlns="http://www.w3.org/2000/svg" xmlns:xlink="http://www.w3.org/1999/xlink" x="0px" y="0px"
	 viewBox="0 0 14.5 14.2" enable-background="new 0 0 14.5 14.2" xml:space="preserve">
<path fill="#EF4559" d="M10.2,1c0.5,0,1.1,0.2,1.8,0.6c0.9,0.5,1.4,1.3,1.4,2.4c0.1,2-1.5,5.6-6.2,9C2.5,9.6,0.9,6,1,4
	c0-1.1,0.5-1.9,1.4-2.4C3.1,1.2,3.7,1,4.2,1c1.4,0,3,2.6,3,2.6S8.8,1,10.2,1 M10.2,0c-2.1,0-3,2.2-3,2.2S6.4,0,4.2,0
	C3.6,0,2.8,0.2,1.9,0.7C-1.9,2.9,0,9.3,7.2,14.2c7.2-4.9,9.2-11.3,5.3-13.5C11.6,0.2,10.9,0,10.2,0L10.2,0z"/>
</svg>
