<?xml version="1.0" encoding="utf-8"?>
<!-- Generator: Adobe Illustrator 18.1.1, SVG Export Plug-In . SVG Version: 6.00 Build 0)  -->
<svg version="1.1" id="Layer_1" xmlns="http://www.w3.org/2000/svg" xmlns:xlink="http://www.w3.org/1999/xlink" x="0px" y="0px"
	 viewBox="0 0 126.7 130.3" enable-background="new 0 0 126.7 130.3" xml:space="preserve">
<g>
	<path fill="#9B1B4A" d="M118.8,130.3H63.7c-4.4,0-7.9-3.6-7.9-7.9V7.9c0-4.4,3.5-7.9,7.9-7.9h55.1c4.4,0,7.9,3.5,7.9,7.9v114.4
		C126.7,126.7,123.2,130.3,118.8,130.3z"/>
	<path fill="#FFFFFF" d="M123.4,10.5v109.2c0,4-3,7.2-6.8,7.2h-51c-3.8,0-6.8-3.2-6.8-7.2V10.5c0-4,3-7.2,6.8-7.2h51
		C120.4,3.3,123.4,6.6,123.4,10.5z"/>
	<path fill="#9B1B4A" d="M104.8,8.6h-27c-0.6,0-1.1-0.5-1.1-1.1V2.8h29.3v4.7C105.9,8.1,105.4,8.6,104.8,8.6z"/>
	<path fill="#9B1B4A" d="M95.4,17.2H65.1c-1.3,0-2.3,1-2.3,2.3v7.3c0,1.2,1,2.2,2.2,2.3L64.4,31c-0.1,0.4,0.5,0.7,0.7,0.3l1.5-2.2
		c0,0,0,0,0,0h28.8c1.3,0,2.3-1,2.3-2.3v-7.3C97.7,18.2,96.7,17.2,95.4,17.2z"/>
	<rect x="65.2" y="19.7" fill="#FFFFFF" width="28.2" height="1.2"/>
	<rect x="65.2" y="22.2" fill="#FFFFFF" width="19.3" height="1.1"/>
	<path fill="#FAE2EC" d="M89.3,35.9H118c1.2,0,2.2,1,2.2,2.3v7.3c0,1.2-0.9,2.2-2.1,2.3l0.5,1.9c0.1,0.4-0.4,0.7-0.7,0.3l-1.4-2.2
		c0,0,0,0,0,0H89.3c-1.2,0-2.2-1-2.2-2.3v-7.3C87.2,36.9,88.1,35.9,89.3,35.9z"/>
	<rect x="91.2" y="38.5" fill="#FFFFFF" width="26.7" height="1.2"/>
	<rect x="99.6" y="40.9" fill="#FFFFFF" width="18.3" height="1.1"/>
	<path fill="#9B1B4A" d="M95.4,55H65.1c-1.3,0-2.3,1-2.3,2.3v7.3c0,1.2,1,2.2,2.2,2.3l-0.5,1.9c-0.1,0.4,0.5,0.7,0.7,0.3l1.5-2.2
		c0,0,0,0,0,0h28.8c1.3,0,2.3-1,2.3-2.3v-7.3C97.7,56,96.7,55,95.4,55z"/>
	<rect x="65.2" y="57.5" fill="#FFFFFF" width="28.2" height="1.2"/>
	<rect x="65.2" y="60" fill="#FFFFFF" width="19.3" height="1.1"/>
	<path fill="#FAE2EC" d="M89.3,73.7H118c1.2,0,2.2,1,2.2,2.3v7.3c0,1.2-0.9,2.2-2.1,2.3l0.5,1.9c0.1,0.4-0.4,0.7-0.7,0.3l-1.4-2.2
		c0,0,0,0,0,0H89.3c-1.2,0-2.2-1-2.2-2.3V76C87.2,74.7,88.1,73.7,89.3,73.7z"/>
	<rect x="91.2" y="76.3" fill="#FFFFFF" width="26.7" height="1.2"/>
	<rect x="99.6" y="78.7" fill="#FFFFFF" width="18.3" height="1.1"/>
	<path fill="#FAE2EC" d="M89.3,94.5H118c1.2,0,2.2,1,2.2,2.3v7.3c0,1.2-0.9,2.2-2.1,2.3l0.5,1.9c0.1,0.4-0.4,0.7-0.7,0.3l-1.4-2.2
		c0,0,0,0,0,0H89.3c-1.2,0-2.2-1-2.2-2.3v-7.3C87.2,95.5,88.1,94.5,89.3,94.5z"/>
	<rect x="91.2" y="97" fill="#FFFFFF" width="26.7" height="1.2"/>
	<rect x="99.6" y="99.5" fill="#FFFFFF" width="18.3" height="1.1"/>
	<path fill="#E1E6EF" d="M123.4,113.4v6.4c0,4-3,7.2-6.8,7.2h-51c-3.8,0-6.8-3.2-6.8-7.2v-6.4H123.4z"/>
	<path fill="#FFFFFF" d="M110.6,122.2H65c-0.7,0-1.2-0.6-1.2-1.2v-3.2c0-0.7,0.6-1.2,1.2-1.2h45.6c0.7,0,1.2,0.6,1.2,1.2v3.2
		C111.8,121.6,111.3,122.2,110.6,122.2z"/>
	<path fill="#FFFFFF" d="M116.1,116.7c0.4,0,0.7,0.1,1,0.2c0.3,0.1,0.6,0.3,0.9,0.6s0.4,0.5,0.6,0.9c0.1,0.3,0.2,0.7,0.2,1
		c0,0.4-0.1,0.7-0.2,1c-0.1,0.3-0.3,0.6-0.6,0.9s-0.5,0.4-0.9,0.6c-0.3,0.1-0.7,0.2-1,0.2c-0.4,0-0.7-0.1-1-0.2
		c-0.3-0.1-0.6-0.3-0.9-0.6s-0.4-0.5-0.6-0.9c-0.1-0.3-0.2-0.7-0.2-1c0-0.4,0.1-0.7,0.2-1c0.1-0.3,0.3-0.6,0.6-0.9s0.5-0.4,0.9-0.6
		C115.4,116.7,115.8,116.7,116.1,116.7z"/>
	<polygon fill="#FAE2EC" points="12.3,109.1 6,130.1 6.4,130.1 13.9,109.8 	"/>
	<polygon fill="#EECEDD" points="67.2,109.1 73.4,130.1 73,130.1 65.5,109.8 	"/>
	<polygon fill="#FAE2EC" points="52.8,109.1 46.5,130.1 46.9,130.1 54.4,109.8 	"/>
	<polygon fill="#EECEDD" points="26.1,109.1 32.4,130.1 32,130.1 24.5,109.8 	"/>
	<path fill="#FAE2EC" d="M21.1,110h-6.9c-2.9,0-5.2-2.5-5.2-5.5L6.3,84.1c0-3.1,2.3-5.5,5.2-5.5h9.7V110z"/>
	<path fill="#FAE2EC" d="M60.9,87.9v22.2H16.4L18,106c1.1-2.6,2.7-5,4.6-7.1l0.6-0.6l-4.8,3.7l-2.1,8.1h-2.1l-3.6-22.2H60.9z"/>
	<path fill="#EECEDD" d="M64.4,89.8H39.7c-4.8,0-8.4-3.8-7.5-7.9l4.9-23.1c0.7-3.2,17.8-5.3,21.5-5.3l10.5,1.3
		c4.8,0,8.4,3.8,7.5,7.9L72,84.4C71.3,87.5,68.1,89.8,64.4,89.8z"/>
	<path fill="#FAE2EC" d="M53.4,89.8H30.9c-4.4,0-7.7-3.8-6.9-7.9l4.5-23.1c0.6-3.2,3.5-5.5,6.9-5.5h22.5c4.4,0,7.7,3.8,6.9,7.9
		l-4.5,23.1C59.7,87.5,56.8,89.8,53.4,89.8z"/>
	<polygon fill="#EECEDD" points="19,78.8 30,78.8 30,97.4 21.3,97.4 	"/>
	<path fill="#9B1B4A" d="M14.9,42H1.1C0.5,42,0,42.4,0,43v3.3c0,0.6,0.4,1,1,1l-0.2,0.9c-0.1,0.2,0.2,0.3,0.3,0.1l0.7-1c0,0,0,0,0,0
		H15c0.6,0,1.1-0.5,1.1-1.1V43C16,42.4,15.5,42,14.9,42z"/>
	<rect x="1.1" y="43.1" fill="#FFFFFF" width="12.9" height="0.6"/>
	<rect x="1.1" y="44.3" fill="#FFFFFF" width="8.8" height="0.5"/>
	<path fill="#FAE2EC" d="M12.1,50.6h13.1c0.5,0,1,0.5,1,1.1v3.3c0,0.6-0.4,1-0.9,1l0.2,0.9c0,0.2-0.2,0.3-0.3,0.1l-0.6-1
		c0,0,0,0,0,0H12.1c-0.5,0-1-0.5-1-1.1v-3.3C11.2,51,11.6,50.6,12.1,50.6z"/>
	<rect x="13" y="51.7" fill="#FFFFFF" width="12.2" height="0.6"/>
	<rect x="16.9" y="52.9" fill="#FFFFFF" width="8.4" height="0.5"/>
	<path fill="#EECEDD" d="M49.4,97.3l-0.3,2.2c-0.1,0.9-0.7,1.3-1.7,1.5l-4.1,0.7c-3.4,0.7-5.2,1.2-6.3,4.1l-1.5,4.2h-8l-3.6-4.7
		l2.2-9.8h18.5L49.4,97.3z"/>
	<path fill="#EDBEB5" d="M20.4,119.7c0,0-0.8,1.7-2.1,2.9c-1.3,1.1-7.1,3.5-7.4,4.9c-0.3,1.5,3.7,1.8,4.9,1.6
		c1.1-0.3,8.7-1.7,8.7-2.5c0-0.7,0.6-6.2,0.6-6.2L20.4,119.7z"/>
	<path fill="#2B121E" d="M49.4,97.3c0,0-2.6,4.1-9,3.2c-6.4-0.8-10.8-2.7-10.8-2.7s-1.8,19.3-3.5,22.3c0,0-5.1,0.3-6.7-1.1
		c0,0,1.1-4.4,1.1-6s-0.6-20.7,1.4-23.8c2-3,12.7-2.1,12.7-2.1l5.5-1.2l9.2,4.1l0.7,5.1C50,95.2,50.2,96.3,49.4,97.3z"/>
	<path fill="#C69DB1" d="M24.1,120.4c-1.5,0-3.5-0.2-4.8-1.2c-0.1,0-0.1-0.1,0-0.2c0-0.1,0.1-0.1,0.2,0c2,1.6,6.1,1.1,6.6,1.1
		c1.1-1.7,2.3-10.6,2.3-10.7l0.4-7.1c0,0,0-0.1,0.1-0.1l5.5-2.8c0,0,0.1,0,0.1,0c6,1.9,9.7,1.3,11.8,0.4c2.2-1,3.1-2.4,3.1-2.4
		c0-0.1,0.1-0.1,0.2,0c0.1,0,0.1,0.1,0,0.2c0,0.1-0.9,1.5-3.2,2.5c-2.1,0.9-5.9,1.6-11.9-0.3l-5.4,2.8l-0.4,7.1
		c0,0.4-1.2,9.2-2.4,10.9c0,0,0,0-0.1,0.1C26.1,120.3,25.2,120.4,24.1,120.4z"/>
	<path fill="#EDBEB5" d="M44.8,67.3v-1c0,0-3.9-2.2-4.1-3.8c-0.2-1.6-0.7-6.8-0.7-6.8l3.1-2.4l7.9,2.5l0.9,2.5l-1.8,5.2l2.1,4.2
		l-7.4,6.5l-1.6-1.3L44.8,67.3z"/>
	<path fill="#2B121E" d="M40.8,67.4c0,0-2.2-0.8-2.3-6.3c-0.1-5.5,1.3-9.4,4.2-10.6c2.8-1.3,6.3,0.1,7.2,1.3
		c0.9,1.1,2.4,3.5,2.8,5.9c0.4,2.4-0.7,8.2,2.8,10l-3.3,0.1c0,0-2.7-2.2-2.1-4.2c0.5-1.9,0.1-3.8,0.1-3.8s2-1.4,0.9-2.7
		c-0.9-1.1-1.9,1-1.9,1s-3.8-3.3-6.1-2.8c-1,0.2-1.6,0.9-2,1.7c-0.5,1-0.6,2.1-0.5,3.1l0,0.3c0.3,2.2,1.4,4.1,3.2,5.4
		c0.3,0.2,0.7,0.5,1.1,0.7v1L40.8,67.4z"/>
	<path fill="#A7B0DA" d="M49.4,97.3l0.1-0.3C49.5,97.2,49.4,97.3,49.4,97.3z"/>
	<path fill="#A7B0DA" d="M58.7,71.8c0,5.1-0.8,14.1-0.8,14.1s-0.9,3.5-3.1,6c-0.2,0.2-0.3,0.4-0.5,0.6c-2.5,2.5-3.4,1.6-3.4,1.6
		l-1,2.7c0.2-0.7,0-2.5-3.3-6.2c-4.3-4.8-12-3.4-12-3.4L34,83.6l0.3-6.6l0.3-7.4c0,0,0,0,0.3-1.2c0.1-0.4,1.4-0.7,3-0.9
		c0.1,0,0.3,0,0.4,0c0.1,0,0.2,0,0.2,0c2.8-0.3,6.3-0.3,6.3-0.3l-0.2,6.1l7.6-6c2.2-0.9,5.1,0.3,6.1,1
		C58.6,68.6,58.7,69.9,58.7,71.8z"/>
	<path fill="#8996C5" d="M38.6,70.6c0.5,1.1,0.6,4.5-1.1,4.6c-1.9,0-3,1.9-3,1.9s-0.1,0-0.2,0l0.3-7.4c0,0,0,0,0.3-1.2
		c0.1-0.4,2-0.8,3.6-0.9c-0.2,0.1-0.7,0.3-0.8,0.6C37.4,69,38.1,69.5,38.6,70.6z"/>
	<path fill="#5C595B" d="M30.8,64.7l-0.1,0.6l2.8,9.5l5.5-1.4l-3-9.6c-0.1-0.2-0.3-0.4-0.5-0.3l-4.3,0.9
		C31,64.4,30.7,64.4,30.8,64.7z"/>
	<path fill="#2B121E" d="M30.7,65.2l2.9,9.7c0,0.1,0.2,0.2,0.3,0.2l4.4-1.1c0.1,0,0.2-0.2,0.2-0.3l-2.8-9.1
		c-0.1-0.4-0.5-0.6-0.8-0.5l-3.9,0.8C30.8,64.9,30.7,65.1,30.7,65.2z"/>
	<path fill="#EDBEB5" d="M31.5,79.3l0.4-3.8c0,0-0.7-3.3,0.1-4c0.5-0.4,1.5-0.6,2.2-0.7c0.4-0.1,0.7,0.2,0.8,0.5
		c0.4,1.5,1.4,3.5,0.9,3.8c-0.6,0.4-1.3,0.9-1.4,1.5c-0.1,0.6-0.2,7-0.2,7S33.5,80.4,31.5,79.3z"/>
	<path fill="#5C595B" d="M33.4,105.5c-0.4-0.7-3.3-1.1-4.2-0.3c0,0-0.1,0.1-0.1,0.1v0c-0.7,0.3-1.4,1.2-1.7,1.8
		c-0.1-0.2-0.2-0.4-0.2-0.7c-0.2-4.2-2.6-21.5-2.6-21.5s-0.1-6.7,4.9-6.5c4.9,0.2,5.6,8.6,5.6,8.6C35.6,91,33.8,106.2,33.4,105.5z"
		/>
	<path fill="#EDBEB5" d="M35.7,112.6c-0.6,1.2-10,2.1-10.6,1.5c-1-1,4.6-4.4,4.6-4.4c0.4-0.7-0.5-4.6-0.5-4.6
		c0.9-0.7,3.8-0.4,4.2,0.3c0,0,0.3,2.6,0.7,3.8C34.4,110.4,36.3,111.4,35.7,112.6z"/>
	<path fill="#8996C5" d="M58.7,71.8c0,5.1-0.8,14.1-0.8,14.1s-0.9,3.5-3.1,6c0-0.1-1.7,1.5-1.7,1.4c0.6-1.3,0-5.8-0.5-7.5
		c-0.5-1.7-0.7-5.7,0.3-6.1c1.8-0.8,2-7.8,2-7.8S56.6,71.9,58.7,71.8z"/>
	<path fill="#A7B0DA" d="M61.2,84.8c-1.5,1.8-2,3-5.2,1.3c-0.3-0.2-0.7-0.4-1.1-0.7c-3.5-2.4-9.5-8.1-10.8-8.6
		c-1.5-0.6-5.3-2.1-5.3-2.1s-2.2,0.2-2.3-0.1c-0.1-0.3-1.3-3.1-0.6-3.6c0.7-0.5,1.3-0.5,1.8-0.4c0.5,0.1,1.6,0.5,1.4,0
		s-3.2-2.8-3-3.4c0.3-0.6,4.8,3.3,4.8,3.3l14,8.8l-0.3-5.1c0-0.1,0-0.2,0-0.3c0.1-0.9,0.6-5.3,3.7-5.6C61.7,68.1,62.6,83,61.2,84.8z
		"/>
	<path fill="#EDBEB5" d="M57,82.5c-0.6,2.3-1.3,2.9-2.1,3c-3.5-2.4-9.5-8.1-10.8-8.6c-1.5-0.6-5.3-2.1-5.3-2.1s-2,0.2-2.3-0.1
		c-0.2-0.2-1.5-3.2-0.7-3.7c0.7-0.5,1.5-0.4,2-0.3c0.5,0.1,1.6,0.5,1.4,0s-3.2-2.8-3-3.4c0.3-0.6,4.8,3.3,4.8,3.3l14,8.8
		C54.9,79.4,57.7,79.8,57,82.5z"/>
	<path fill="#C69DB1" d="M54.9,79.4c-0.1,0-0.1,0-0.1-0.1l-0.3-3.8c-0.1-1.3,0-2.5,0.4-3.7c1.2-4.1,3.9-3.5,3.9-3.5
		c0.1,0,0.1,0.1,0.1,0.2c0,0.1-0.1,0.1-0.2,0.1c-0.1,0-2.5-0.5-3.6,3.3c-0.3,1.1-0.4,2.3-0.4,3.6l0.3,3.8C55,79.4,55,79.4,54.9,79.4
		z"/>
	<path fill="#8996C5" d="M34.4,79.2c0,0,0.1,1.9,0.8,3.6c0.7,1.6,1,4.3,1,4.3s-0.6,0-1.2,0.1c0,0-0.5-3.2-0.7-3.6L34.4,79.2z"/>
	<path fill="#A7B0DA" d="M38.5,67.6c0,0-0.1,0-0.3,0C38.3,67.6,38.4,67.6,38.5,67.6C38.5,67.6,38.5,67.6,38.5,67.6z"/>
	<path fill="#9B1B4A" d="M29.1,107.8c-0.6,0-1.1-0.2-1.4-0.4c-0.1-0.1-0.3-0.2-0.3-0.3c0.4-0.7,1-1.6,1.7-1.8v0
		C28.3,106,29.1,107.8,29.1,107.8z"/>
	<path fill="#C69DB1" d="M29.1,107.9c-0.5,0-1-0.1-1.4-0.4c-0.4-0.3-0.7-0.7-0.7-1.1l-2.6-21.5c0,0,0,0,0,0l0.5-3
		c0-0.1,0.1-0.1,0.1-0.1c0.1,0,0.1,0.1,0.1,0.1l-0.5,3l2.6,21.4c0,0.4,0.3,0.7,0.6,1c0.3,0.2,0.7,0.3,1.1,0.4
		c-0.2-0.4-0.6-1.3-0.1-2.2c0.2-0.3,0.4-0.5,0.8-0.6c0.7-0.2,2.2-0.5,3.9,0.5c0.1,0,0.1,0.1,0,0.2s-0.1,0.1-0.2,0
		c-1.6-0.9-3-0.7-3.7-0.5c-0.3,0.1-0.5,0.3-0.6,0.5c-0.7,1,0.2,2.1,0.2,2.1c0,0,0,0.1,0,0.1C29.2,107.9,29.2,107.9,29.1,107.9z"/>
	<path fill="#E4B2AC" d="M44.8,66.3c0,0,0.7,0.3,1.4-0.1c0.6-0.3,1.6-1.6,1.6-1.6s-1.8,3.4-3,4.6L44.8,66.3z"/>
	<path fill="#EECEDD" d="M67.5,110H55.6l3-31.4h14c3.3,0,5.9,2.8,5.9,6.3l-3.9,14.6c-0.5,1.7-0.9,3.5-1.2,5.3
		C72.8,107.7,70.4,110,67.5,110z"/>
	<path fill="#FAE2EC" d="M54.6,110h-6.8l3.7-29.8c0.1-0.9,0.8-1.6,1.7-1.6h3.9c3.3,0,5.9,2.8,5.9,6.3l-2.6,18.7
		C60.5,107.1,57.8,110,54.6,110z"/>
</g>
</svg>
