<?xml version="1.0" encoding="utf-8"?>
<!-- Generator: Adobe Illustrator 18.1.1, SVG Export Plug-In . SVG Version: 6.00 Build 0)  -->
<svg version="1.1" id="Layer_1" xmlns="http://www.w3.org/2000/svg" xmlns:xlink="http://www.w3.org/1999/xlink" x="0px" y="0px"
	 viewBox="0 0 153 145.7" enable-background="new 0 0 153 145.7" xml:space="preserve">
<g>
	<path fill="#EF4645" d="M126.4,141.7c-2,0-4-2-4-4c0,2-2,4-4,4c2,0,4,2,4,4C122.4,143.7,124.4,141.7,126.4,141.7z"/>
	<path fill="#82CDB8" d="M153,61.9c-4.7,0-8.6-4-8.6-8.6c0,4.7-3.3,8.6-8,8c4.7,0,8.6,4,8.6,8.6C144.4,65.2,148.3,61.2,153,61.9z"/>
	<path fill="#EF4645" d="M24.6,96.5c-2.7,0-5.3-2.7-5.3-5.3c0,2.7-2,5.3-4.7,4.7c2.7,0,5.3,2.7,5.3,5.3C19.3,98.5,22,95.8,24.6,96.5
		z"/>
	<path fill="#FEBB18" d="M14.6,39.2c-4,0-7.3-3.3-7.3-7.3c0,4-3.3,7.3-7.3,7.3c4,0,7.3,3.3,7.3,7.3C7.3,42.6,10.6,39.2,14.6,39.2z"
		/>
	<path fill="#2C3847" d="M115.1,4c-2,0-4-2-4-4c0,2-2,4-4,4c2,0,4,2,4,4C111.1,6,113.1,4,115.1,4z"/>
	<path fill="#DDA1B7" d="M76.5,28.6c1.7,0,3.5,0.1,5.2,0.3c1.7,0.2,3.5,0.4,5.2,0.8c1.7,0.3,3.4,0.8,5.1,1.3
		c1.7,0.5,3.3,1.1,4.9,1.8c1.6,0.7,3.2,1.4,4.7,2.2c1.5,0.8,3,1.7,4.5,2.7s2.8,2,4.2,3.1s2.6,2.3,3.9,3.5c1.2,1.2,2.4,2.5,3.5,3.9
		c1.1,1.3,2.1,2.7,3.1,4.2s1.9,2.9,2.7,4.5c0.8,1.5,1.6,3.1,2.2,4.7c0.7,1.6,1.3,3.2,1.8,4.9c0.5,1.7,0.9,3.4,1.3,5.1
		c0.3,1.7,0.6,3.4,0.8,5.2s0.3,3.5,0.3,5.2c0,1.7-0.1,3.5-0.3,5.2c-0.2,1.7-0.4,3.5-0.8,5.2c-0.3,1.7-0.8,3.4-1.3,5.1
		c-0.5,1.7-1.1,3.3-1.8,4.9c-0.7,1.6-1.4,3.2-2.2,4.7c-0.8,1.5-1.7,3-2.7,4.5s-2,2.8-3.1,4.2c-1.1,1.3-2.3,2.6-3.5,3.9
		c-1.2,1.2-2.5,2.4-3.9,3.5c-1.3,1.1-2.7,2.1-4.2,3.1c-1.4,1-2.9,1.9-4.5,2.7c-1.5,0.8-3.1,1.6-4.7,2.2c-1.6,0.7-3.2,1.3-4.9,1.8
		c-1.7,0.5-3.4,0.9-5.1,1.3c-1.7,0.3-3.4,0.6-5.2,0.8c-1.7,0.2-3.5,0.3-5.2,0.3s-3.5-0.1-5.2-0.3s-3.5-0.4-5.2-0.8
		c-1.7-0.3-3.4-0.8-5.1-1.3c-1.7-0.5-3.3-1.1-4.9-1.8c-1.6-0.7-3.2-1.4-4.7-2.2c-1.5-0.8-3-1.7-4.5-2.7c-1.4-1-2.8-2-4.2-3.1
		c-1.3-1.1-2.6-2.3-3.9-3.5c-1.2-1.2-2.4-2.5-3.5-3.9c-1.1-1.3-2.1-2.7-3.1-4.2c-1-1.4-1.9-2.9-2.7-4.5c-0.8-1.5-1.6-3.1-2.2-4.7
		c-0.7-1.6-1.3-3.2-1.8-4.9c-0.5-1.7-0.9-3.4-1.3-5.1s-0.6-3.4-0.8-5.2c-0.2-1.7-0.3-3.5-0.3-5.2c0-1.7,0.1-3.5,0.3-5.2
		s0.4-3.5,0.8-5.2c0.3-1.7,0.8-3.4,1.3-5.1c0.5-1.7,1.1-3.3,1.8-4.9s1.4-3.2,2.2-4.7c0.8-1.5,1.7-3,2.7-4.5c1-1.4,2-2.8,3.1-4.2
		c1.1-1.3,2.3-2.6,3.5-3.9s2.5-2.4,3.9-3.5s2.7-2.1,4.2-3.1c1.4-1,2.9-1.9,4.5-2.7c1.5-0.8,3.1-1.6,4.7-2.2c1.6-0.7,3.2-1.3,4.9-1.8
		c1.7-0.5,3.4-0.9,5.1-1.3c1.7-0.3,3.4-0.6,5.2-0.8S74.8,28.6,76.5,28.6z"/>
	<path fill="#D1D9E6" d="M93.1,67.2l-3.3,18c13.3-1.3,22.6,6.7,22.6,6.7C112.4,77.2,93.1,67.2,93.1,67.2z"/>
	<path fill="#D1D9E6" d="M59.9,67.2l3.3,18c-13.3-1.3-22.6,6.7-22.6,6.7C40.6,77.2,59.9,67.2,59.9,67.2z"/>
	<path fill="#9B1B4A" d="M93.1,74.5H59.9c-4-16.6-0.7-33.3,8-51.2c2.7-4.7,5.3-10,8.6-14.6c3.3,5.3,6,10,8.6,14.6
		C93.8,41.9,97.1,58.5,93.1,74.5z"/>
	<path fill="#FEBB18" d="M89.1,87.8H63.9c-2,0-4-2-4-4v-8.6h33.3v8.6C93.1,85.8,91.1,87.8,89.1,87.8z"/>
	<path fill="#FEBB18" d="M85.1,23.3c-2.7,2-5.3,3.3-8.6,3.3c-3.3,0-6-1.3-8.6-3.3c2.7-4.7,5.3-10,8.6-14.6
		C79.8,14,82.5,18.6,85.1,23.3z"/>
	<path fill="#FFFFFF" d="M76.5,42.6c0.7,0,1.3,0.1,1.9,0.2s1.3,0.3,1.9,0.6s1.2,0.6,1.7,0.9c0.5,0.4,1,0.8,1.5,1.2
		c0.5,0.5,0.9,1,1.2,1.5s0.7,1.1,0.9,1.7c0.3,0.6,0.4,1.2,0.6,1.9s0.2,1.3,0.2,1.9c0,0.7-0.1,1.3-0.2,1.9s-0.3,1.3-0.6,1.9
		c-0.3,0.6-0.6,1.2-0.9,1.7c-0.4,0.5-0.8,1-1.2,1.5c-0.5,0.5-1,0.9-1.5,1.2c-0.5,0.4-1.1,0.7-1.7,0.9c-0.6,0.3-1.2,0.4-1.9,0.6
		c-0.6,0.1-1.3,0.2-1.9,0.2s-1.3-0.1-1.9-0.2c-0.6-0.1-1.3-0.3-1.9-0.6c-0.6-0.3-1.2-0.6-1.7-0.9c-0.5-0.4-1-0.8-1.5-1.2
		c-0.5-0.5-0.9-1-1.2-1.5c-0.4-0.5-0.7-1.1-0.9-1.7c-0.3-0.6-0.4-1.2-0.6-1.9c-0.1-0.6-0.2-1.3-0.2-1.9c0-0.7,0.1-1.3,0.2-1.9
		c0.1-0.6,0.3-1.3,0.6-1.9c0.3-0.6,0.6-1.2,0.9-1.7c0.4-0.5,0.8-1,1.2-1.5c0.5-0.5,1-0.9,1.5-1.2c0.5-0.4,1.1-0.7,1.7-0.9
		c0.6-0.3,1.2-0.4,1.9-0.6S75.8,42.6,76.5,42.6z"/>
	<path fill="#FEBB18" d="M76.5,45.9c0.4,0,0.9,0,1.3,0.1c0.4,0.1,0.8,0.2,1.2,0.4c0.4,0.2,0.8,0.4,1.2,0.6c0.4,0.2,0.7,0.5,1,0.8
		c0.3,0.3,0.6,0.6,0.8,1c0.2,0.4,0.4,0.7,0.6,1.2c0.2,0.4,0.3,0.8,0.4,1.2c0.1,0.4,0.1,0.9,0.1,1.3c0,0.4,0,0.9-0.1,1.3
		c-0.1,0.4-0.2,0.8-0.4,1.2c-0.2,0.4-0.4,0.8-0.6,1.1c-0.2,0.4-0.5,0.7-0.8,1c-0.3,0.3-0.6,0.6-1,0.8s-0.7,0.4-1.2,0.6
		c-0.4,0.2-0.8,0.3-1.2,0.4c-0.4,0.1-0.9,0.1-1.3,0.1c-0.4,0-0.9,0-1.3-0.1c-0.4-0.1-0.8-0.2-1.2-0.4c-0.4-0.2-0.8-0.4-1.2-0.6
		s-0.7-0.5-1-0.8c-0.3-0.3-0.6-0.6-0.8-1c-0.2-0.4-0.4-0.7-0.6-1.1c-0.2-0.4-0.3-0.8-0.4-1.2c-0.1-0.4-0.1-0.9-0.1-1.3
		c0-0.4,0-0.9,0.1-1.3c0.1-0.4,0.2-0.8,0.4-1.2c0.2-0.4,0.4-0.8,0.6-1.2c0.2-0.4,0.5-0.7,0.8-1c0.3-0.3,0.6-0.6,1-0.8
		c0.4-0.2,0.7-0.4,1.2-0.6c0.4-0.2,0.8-0.3,1.2-0.4C75.6,45.9,76.1,45.9,76.5,45.9z"/>
	<polygon fill="#00AD98" points="77.2,91.8 75.8,91.8 73.8,70.5 79.2,70.5 	"/>
	<path fill="#EF4A64" d="M85.8,87.8h-2c1.3,6,0,12.6-3.3,19.3c-1.3,2-2,3.3-4,5.3c-1.3-2-2.7-4-4-5.3c-4-6.7-5.3-13.3-3.3-19.3h-2
		c-2,8-0.7,16,4.7,25.3c1.3,2.7,3.3,4.7,4.7,7.3c2-2.7,3.3-4.7,4.7-7.3C86.5,103.8,88.5,95.8,85.8,87.8z"/>
	<path fill="#FFFFFF" d="M81.8,87.8h-1.3c0.7,3.3,0,6.7-2,10.6c-0.7,0.7-1.3,2-2,3.3c-0.7-1.3-1.3-2-2-3.3c-2-4-2.7-7.3-2-10.6h-1.3
		c-1.3,4.7,0,8.6,2.7,13.3c0.7,1.3,1.3,2.7,2.7,4c1.3-1.3,2-2.7,2.7-4C81.8,96.5,83.2,91.8,81.8,87.8z"/>
	<path fill="#FFFFFF" d="M111.8,101.1c1,0,2.1,0.1,3.1,0.3c1,0.2,2,0.5,3,0.9c1,0.4,1.9,0.9,2.8,1.5c0.9,0.6,1.7,1.2,2.4,2
		s1.4,1.5,2,2.4c0.6,0.9,1.1,1.8,1.5,2.8c0.4,1,0.7,2,0.9,3c0.2,1,0.3,2.1,0.3,3.1c0,1-0.1,2.1-0.3,3.1s-0.5,2-0.9,3
		c-0.4,1-0.9,1.9-1.5,2.8s-1.2,1.7-2,2.4s-1.5,1.4-2.4,2s-1.8,1.1-2.8,1.5s-2,0.7-3,0.9c-1,0.2-2.1,0.3-3.1,0.3s-2.1-0.1-3.1-0.3
		c-1-0.2-2-0.5-3-0.9c-1-0.4-1.9-0.9-2.8-1.5c-0.9-0.6-1.7-1.2-2.4-2c-0.7-0.7-1.4-1.5-2-2.4s-1.1-1.8-1.5-2.8c-0.4-1-0.7-2-0.9-3
		s-0.3-2.1-0.3-3.1c0-1,0.1-2.1,0.3-3.1c0.2-1,0.5-2,0.9-3c0.4-1,0.9-1.9,1.5-2.8s1.2-1.7,2-2.4c0.7-0.7,1.5-1.4,2.4-2
		c0.9-0.6,1.8-1.1,2.8-1.5c1-0.4,2-0.7,3-0.9C109.7,101.2,110.7,101.1,111.8,101.1z"/>
	<path fill="#F3F3F3" d="M59.9,109.1c1,0,1.9,0.1,2.9,0.3c0.9,0.2,1.9,0.5,2.7,0.8s1.7,0.8,2.5,1.4c0.8,0.5,1.5,1.1,2.2,1.8
		c0.7,0.7,1.3,1.4,1.8,2.2c0.5,0.8,1,1.6,1.4,2.5c0.4,0.9,0.6,1.8,0.8,2.7s0.3,1.9,0.3,2.9s-0.1,1.9-0.3,2.9
		c-0.2,0.9-0.5,1.9-0.8,2.7c-0.4,0.9-0.8,1.7-1.4,2.5c-0.5,0.8-1.1,1.5-1.8,2.2c-0.7,0.7-1.4,1.3-2.2,1.8c-0.8,0.5-1.6,1-2.5,1.4
		s-1.8,0.6-2.7,0.8c-0.9,0.2-1.9,0.3-2.9,0.3c-1,0-1.9-0.1-2.9-0.3c-0.9-0.2-1.9-0.5-2.7-0.8s-1.7-0.8-2.5-1.4
		c-0.8-0.5-1.5-1.1-2.2-1.8c-0.7-0.7-1.3-1.4-1.8-2.2c-0.5-0.8-1-1.6-1.4-2.5c-0.4-0.9-0.6-1.8-0.8-2.7c-0.2-0.9-0.3-1.9-0.3-2.9
		s0.1-1.9,0.3-2.9s0.5-1.9,0.8-2.7c0.4-0.9,0.8-1.7,1.4-2.5c0.5-0.8,1.1-1.5,1.8-2.2c0.7-0.7,1.4-1.3,2.2-1.8c0.8-0.5,1.6-1,2.5-1.4
		s1.8-0.6,2.7-0.8C58,109.2,58.9,109.1,59.9,109.1z"/>
	<path fill="#F3F3F3" d="M93.8,104.4c0.6,0,1.2,0.1,1.8,0.2c0.6,0.1,1.2,0.3,1.7,0.5c0.6,0.2,1.1,0.5,1.6,0.9c0.5,0.3,1,0.7,1.4,1.2
		c0.4,0.4,0.8,0.9,1.2,1.4s0.6,1,0.9,1.6c0.2,0.6,0.4,1.1,0.5,1.7c0.1,0.6,0.2,1.2,0.2,1.8s-0.1,1.2-0.2,1.8
		c-0.1,0.6-0.3,1.2-0.5,1.7c-0.2,0.6-0.5,1.1-0.9,1.6s-0.7,1-1.2,1.4c-0.4,0.4-0.9,0.8-1.4,1.2c-0.5,0.3-1,0.6-1.6,0.9
		c-0.6,0.2-1.1,0.4-1.7,0.5c-0.6,0.1-1.2,0.2-1.8,0.2c-0.6,0-1.2-0.1-1.8-0.2c-0.6-0.1-1.2-0.3-1.7-0.5c-0.6-0.2-1.1-0.5-1.6-0.9
		c-0.5-0.3-1-0.7-1.4-1.2c-0.4-0.4-0.8-0.9-1.2-1.4c-0.3-0.5-0.6-1-0.9-1.6s-0.4-1.1-0.5-1.7s-0.2-1.2-0.2-1.8s0.1-1.2,0.2-1.8
		s0.3-1.2,0.5-1.7s0.5-1.1,0.9-1.6c0.3-0.5,0.7-1,1.2-1.4c0.4-0.4,0.9-0.8,1.4-1.2c0.5-0.3,1-0.6,1.6-0.9c0.6-0.2,1.1-0.4,1.7-0.5
		C92.6,104.5,93.2,104.4,93.8,104.4z"/>
	<path fill="#FFFFFF" d="M84.5,111.8c0.5,0,1.1,0,1.6,0.1c0.5,0.1,1.1,0.1,1.6,0.2c0.5,0.1,1.1,0.2,1.6,0.4c0.5,0.2,1,0.3,1.5,0.5
		c0.5,0.2,1,0.4,1.5,0.7c0.5,0.3,0.9,0.5,1.4,0.8c0.5,0.3,0.9,0.6,1.3,1c0.4,0.3,0.8,0.7,1.2,1.1c0.4,0.4,0.8,0.8,1.1,1.2
		c0.3,0.4,0.7,0.9,1,1.3c0.3,0.5,0.6,0.9,0.8,1.4c0.3,0.5,0.5,1,0.7,1.5c0.2,0.5,0.4,1,0.5,1.5c0.2,0.5,0.3,1,0.4,1.6
		c0.1,0.5,0.2,1.1,0.2,1.6c0.1,0.5,0.1,1.1,0.1,1.6s0,1.1-0.1,1.6c-0.1,0.5-0.1,1.1-0.2,1.6c-0.1,0.5-0.2,1.1-0.4,1.6
		c-0.2,0.5-0.3,1-0.5,1.5c-0.2,0.5-0.4,1-0.7,1.5c-0.3,0.5-0.5,0.9-0.8,1.4c-0.3,0.5-0.6,0.9-1,1.3c-0.3,0.4-0.7,0.8-1.1,1.2
		c-0.4,0.4-0.8,0.8-1.2,1.1c-0.4,0.3-0.9,0.7-1.3,1c-0.5,0.3-0.9,0.6-1.4,0.8c-0.5,0.3-1,0.5-1.5,0.7c-0.5,0.2-1,0.4-1.5,0.5
		c-0.5,0.2-1,0.3-1.6,0.4c-0.5,0.1-1.1,0.2-1.6,0.2c-0.5,0.1-1.1,0.1-1.6,0.1c-0.5,0-1.1,0-1.6-0.1c-0.5-0.1-1.1-0.1-1.6-0.2
		c-0.5-0.1-1.1-0.2-1.6-0.4c-0.5-0.2-1-0.3-1.5-0.5c-0.5-0.2-1-0.4-1.5-0.7c-0.5-0.3-0.9-0.5-1.4-0.8c-0.5-0.3-0.9-0.6-1.3-1
		c-0.4-0.3-0.8-0.7-1.2-1.1c-0.4-0.4-0.8-0.8-1.1-1.2c-0.3-0.4-0.7-0.9-1-1.3c-0.3-0.5-0.6-0.9-0.8-1.4c-0.3-0.5-0.5-1-0.7-1.5
		c-0.2-0.5-0.4-1-0.5-1.5c-0.2-0.5-0.3-1-0.4-1.6c-0.1-0.5-0.2-1.1-0.2-1.6c-0.1-0.5-0.1-1.1-0.1-1.6s0-1.1,0.1-1.6
		c0.1-0.5,0.1-1.1,0.2-1.6c0.1-0.5,0.2-1.1,0.4-1.6c0.2-0.5,0.3-1,0.5-1.5c0.2-0.5,0.4-1,0.7-1.5c0.3-0.5,0.5-0.9,0.8-1.4
		c0.3-0.5,0.6-0.9,1-1.3c0.3-0.4,0.7-0.8,1.1-1.2c0.4-0.4,0.8-0.8,1.2-1.1c0.4-0.3,0.9-0.7,1.3-1c0.5-0.3,0.9-0.6,1.4-0.8
		c0.5-0.3,1-0.5,1.5-0.7c0.5-0.2,1-0.4,1.5-0.5c0.5-0.2,1-0.3,1.6-0.4c0.5-0.1,1.1-0.2,1.6-0.2C83.4,111.8,83.9,111.8,84.5,111.8z"
		/>
	<path fill="#FFFFFF" d="M40.6,101.8c0.5,0,1.1,0,1.6,0.1c0.5,0.1,1.1,0.1,1.6,0.2c0.5,0.1,1.1,0.2,1.6,0.4c0.5,0.2,1,0.3,1.5,0.5
		c0.5,0.2,1,0.4,1.5,0.7c0.5,0.3,0.9,0.5,1.4,0.8c0.5,0.3,0.9,0.6,1.3,1s0.8,0.7,1.2,1.1c0.4,0.4,0.8,0.8,1.1,1.2s0.7,0.9,1,1.3
		c0.3,0.5,0.6,0.9,0.8,1.4c0.3,0.5,0.5,1,0.7,1.5c0.2,0.5,0.4,1,0.5,1.5c0.2,0.5,0.3,1,0.4,1.6s0.2,1.1,0.2,1.6s0.1,1.1,0.1,1.6
		s0,1.1-0.1,1.6s-0.1,1.1-0.2,1.6s-0.2,1.1-0.4,1.6c-0.2,0.5-0.3,1-0.5,1.5c-0.2,0.5-0.4,1-0.7,1.5c-0.3,0.5-0.5,0.9-0.8,1.4
		c-0.3,0.5-0.6,0.9-1,1.3s-0.7,0.8-1.1,1.2c-0.4,0.4-0.8,0.8-1.2,1.1s-0.9,0.7-1.3,1c-0.5,0.3-0.9,0.6-1.4,0.8
		c-0.5,0.3-1,0.5-1.5,0.7c-0.5,0.2-1,0.4-1.5,0.5c-0.5,0.2-1,0.3-1.6,0.4c-0.5,0.1-1.1,0.2-1.6,0.2c-0.5,0.1-1.1,0.1-1.6,0.1
		c-0.5,0-1.1,0-1.6-0.1c-0.5-0.1-1.1-0.1-1.6-0.2c-0.5-0.1-1.1-0.2-1.6-0.4c-0.5-0.2-1-0.3-1.5-0.5s-1-0.4-1.5-0.7
		c-0.5-0.3-0.9-0.5-1.4-0.8c-0.5-0.3-0.9-0.6-1.3-1c-0.4-0.3-0.8-0.7-1.2-1.1c-0.4-0.4-0.8-0.8-1.1-1.2s-0.7-0.9-1-1.3
		c-0.3-0.5-0.6-0.9-0.8-1.4c-0.3-0.5-0.5-1-0.7-1.5c-0.2-0.5-0.4-1-0.5-1.5c-0.2-0.5-0.3-1-0.4-1.6c-0.1-0.5-0.2-1.1-0.2-1.6
		c-0.1-0.5-0.1-1.1-0.1-1.6s0-1.1,0.1-1.6c0.1-0.5,0.1-1.1,0.2-1.6c0.1-0.5,0.2-1.1,0.4-1.6c0.2-0.5,0.3-1,0.5-1.5
		c0.2-0.5,0.4-1,0.7-1.5c0.3-0.5,0.5-0.9,0.8-1.4c0.3-0.5,0.6-0.9,1-1.3s0.7-0.8,1.1-1.2c0.4-0.4,0.8-0.8,1.2-1.1
		c0.4-0.3,0.9-0.7,1.3-1c0.5-0.3,0.9-0.6,1.4-0.8c0.5-0.3,1-0.5,1.5-0.7s1-0.4,1.5-0.5c0.5-0.2,1-0.3,1.6-0.4
		c0.5-0.1,1.1-0.2,1.6-0.2C39.5,101.8,40,101.8,40.6,101.8z"/>
</g>
</svg>
