<?xml version="1.0" encoding="utf-8"?>
<!-- Generator: Adobe Illustrator 18.1.1, SVG Export Plug-In . SVG Version: 6.00 Build 0)  -->
<svg version="1.1" id="Layer_1" xmlns="http://www.w3.org/2000/svg" xmlns:xlink="http://www.w3.org/1999/xlink" x="0px" y="0px"
	 viewBox="0 0 25.4 25.4" enable-background="new 0 0 25.4 25.4" xml:space="preserve">
<g>
	<path fill="#EDF0F2" d="M12.7,1.2C6.4,1.2,1.2,6.4,1.2,12.7c0,6.3,5.1,11.5,11.5,11.5c6.3,0,11.5-5.1,11.5-11.5
		C24.1,6.4,19,1.2,12.7,1.2z M12.7,25.4C5.7,25.4,0,19.7,0,12.7C0,5.7,5.7,0,12.7,0s12.7,5.7,12.7,12.7
		C25.4,19.7,19.7,25.4,12.7,25.4z"/>
	<path fill="#EDF0F2" d="M12.8,20.2c1.1,0,2-0.9,2-2c0-1.2-0.8-2-2-2c-1.1,0-1.9,0.9-1.9,2C10.9,19.3,11.7,20.2,12.8,20.2z
		 M11.4,14.9h2.8c-0.3-2.6,3-3.4,3-6.2c0-2.6-1.8-3.8-4.2-3.8c-1.7,0-3.2,0.8-4.2,2l1.8,1.6c0.6-0.6,1.2-1,2-1
		c0.9,0,1.5,0.5,1.5,1.4C14.2,10.6,10.9,11.9,11.4,14.9z"/>
</g>
</svg>
