<?xml version="1.0" encoding="utf-8"?>
<!-- Generator: Adobe Illustrator 18.1.1, SVG Export Plug-In . SVG Version: 6.00 Build 0)  -->
<svg version="1.1" id="Layer_1" xmlns="http://www.w3.org/2000/svg" xmlns:xlink="http://www.w3.org/1999/xlink" x="0px" y="0px"
	 viewBox="0 0 14.5 14.2" enable-background="new 0 0 14.5 14.2" xml:space="preserve">
<g>
	<path fill="#EF4559" d="M9.7,1c0,0.1,0.1,0.3,0.1,0.8c0,0.7-0.1,1.8-0.5,3.1c0,0.1-0.1,0.2-0.1,0.2L9,6.3h1.2h2.5
		c0.7,0,0.7,0.5,0.7,0.7c0,0.3-0.1,0.5-0.3,0.7l-0.4,0.5l0.2,0.6c0.2,0.4,0.1,0.7-0.1,1l-0.3,0.4l0.1,0.5c0.1,0.3,0.1,0.6-0.2,0.9
		l-0.4,0.4l0.1,0.6c0,0,0,0.3-0.2,0.5c-0.2,0.2-0.5,0.3-0.9,0.3c0,0-0.1,0-0.1,0c-2.8-0.1-4.9-0.8-5.7-1.1V7.3
		c2.3-1.6,3.6-4.5,4.2-6l0-0.1C9.5,1.1,9.6,1,9.7,1 M9.8,0c-0.5,0-1,0.4-1.2,0.8C8.5,1,7.2,4.9,4.5,6.6C4.4,6.7,4.3,6.9,4.3,7v5.4
		c0,0.2,0.1,0.3,0.2,0.4C4.6,13,7.2,14,11,14.2c0.1,0,0.1,0,0.2,0c1.8,0,2.2-1.4,2.1-2c0.7-0.7,0.6-1.6,0.5-1.9
		c0.3-0.4,0.6-1,0.3-1.9C14.3,8,14.5,7.6,14.5,7c0-1.5-1.3-1.7-1.7-1.7h-2.5c0-0.1,0.6-1.6,0.6-3.5C10.9,0.5,10.3,0,9.8,0L9.8,0z"/>
	<path fill="#EF4559" d="M2.8,7.5v5H1v-5H2.8 M3.2,6.5H0.6c-0.1,0-0.2,0-0.2,0c-0.1,0-0.1,0.1-0.2,0.1C0.1,6.7,0.1,6.7,0,6.8
		S0,7,0,7v5.8c0,0.1,0,0.1,0,0.2c0,0.1,0.1,0.1,0.1,0.2s0.1,0.1,0.2,0.1c0.1,0,0.1,0,0.2,0h2.6c0.1,0,0.1,0,0.2,0
		c0.1,0,0.1-0.1,0.2-0.1s0.1-0.1,0.1-0.2c0-0.1,0-0.1,0-0.2V7c0-0.1,0-0.1,0-0.2c0-0.1-0.1-0.1-0.1-0.2C3.5,6.6,3.5,6.5,3.4,6.5
		C3.3,6.5,3.3,6.5,3.2,6.5L3.2,6.5z"/>
</g>
</svg>
