<?xml version="1.0" encoding="utf-8"?>
<!-- Generator: Adobe Illustrator 18.1.1, SVG Export Plug-In . SVG Version: 6.00 Build 0)  -->
<svg version="1.1" id="Layer_1" xmlns="http://www.w3.org/2000/svg" xmlns:xlink="http://www.w3.org/1999/xlink" x="0px" y="0px"
	 viewBox="0 0 14.5 14.2" enable-background="new 0 0 14.5 14.2" xml:space="preserve">
<g>
	<path fill="#EF4559" d="M14,8.4C14.3,8,14.5,7.6,14.5,7c0-1.5-1.3-1.7-1.7-1.7h-2.5c0-0.1,0.6-1.6,0.6-3.5c0-2.5-1.9-1.9-2.3-0.9
		C8.5,1,7.2,4.9,4.5,6.6C4.4,6.7,4.3,6.9,4.3,7v5.4c0,0.2,0.1,0.3,0.2,0.4C4.6,13,7.2,14,11,14.2c1.9,0.1,2.4-1.3,2.2-2
		c0.7-0.7,0.6-1.6,0.5-1.9C14,10,14.4,9.3,14,8.4z"/>
	<path fill="#EF4559" d="M3.7,6.8c0-0.1-0.1-0.1-0.1-0.2C3.5,6.6,3.5,6.5,3.4,6.5c-0.1,0-0.1,0-0.2,0H0.6c-0.1,0-0.2,0-0.2,0
		c-0.1,0-0.1,0.1-0.2,0.1C0.1,6.7,0.1,6.7,0,6.8S0,7,0,7v5.8c0,0.1,0,0.1,0,0.2c0,0.1,0.1,0.1,0.1,0.2s0.1,0.1,0.2,0.1
		c0.1,0,0.1,0,0.2,0h2.6c0.1,0,0.1,0,0.2,0c0.1,0,0.1-0.1,0.2-0.1s0.1-0.1,0.1-0.2c0-0.1,0-0.1,0-0.2V7C3.8,7,3.7,6.9,3.7,6.8z"/>
</g>
</svg>
