<?xml version="1.0" encoding="utf-8"?>
<!-- Generator: Adobe Illustrator 18.1.1, SVG Export Plug-In . SVG Version: 6.00 Build 0)  -->
<svg version="1.1" id="Layer_1" xmlns="http://www.w3.org/2000/svg" xmlns:xlink="http://www.w3.org/1999/xlink" x="0px" y="0px"
	 viewBox="0 0 25 25" enable-background="new 0 0 25 25" xml:space="preserve">
<g>
	<path fill="#EDF0F2" d="M19.9,5.6c-0.7-0.7-1.6-1.1-2.6-1.1c-1,0-1.9,0.4-2.6,1.1l-2.1,2.1c0.7,0.1,1.4,0.4,2,0.8L16.1,7
		c0.6-0.6,1.7-0.6,2.4,0C18.8,7.3,19,7.7,19,8.2s-0.2,0.9-0.5,1.2L17.9,10L15,12.9c-0.6,0.6-1.7,0.6-2.4,0c-0.4-0.4-1-0.4-1.4,0
		s-0.4,1,0,1.4c0.7,0.7,1.6,1.1,2.6,1.1c1,0,1.9-0.4,2.6-1.1l2.9-2.9l0.6-0.6c0.7-0.7,1.1-1.6,1.1-2.6C21,7.2,20.6,6.3,19.9,5.6z
		 M14.6,10.7c0-0.1,0-0.2-0.1-0.3c0,0,0,0,0,0c0-0.1-0.1-0.2-0.2-0.3c-0.7-0.7-1.7-1.1-2.6-1.1s-1.9,0.4-2.6,1.1l-3.5,3.5
		c-1.4,1.4-1.4,3.8,0,5.2C6.3,19.6,7.3,20,8.2,20c1,0,1.9-0.4,2.6-1.1l2.1-2.1c-0.7-0.1-1.4-0.4-2-0.8l-1.4,1.4
		c-0.6,0.6-1.7,0.6-2.4,0c-0.7-0.7-0.7-1.7,0-2.4l1.9-1.9l1.6-1.6c0.2-0.2,0.3-0.3,0.6-0.4c0.1,0,0.2-0.1,0.3-0.1
		c0.5-0.1,1.1,0.1,1.5,0.5c0.4,0.4,1,0.4,1.4,0c0.1-0.1,0.2-0.3,0.3-0.5v0C14.6,11,14.6,10.9,14.6,10.7
		C14.6,10.8,14.6,10.8,14.6,10.7z"/>
	<path fill="#EDF0F2" d="M12.5,1.2C6.3,1.2,1.2,6.3,1.2,12.5s5,11.3,11.3,11.3c6.2,0,11.3-5,11.3-11.3C23.7,6.3,18.7,1.2,12.5,1.2z
		 M12.5,25C5.6,25,0,19.4,0,12.5C0,5.6,5.6,0,12.5,0C19.4,0,25,5.6,25,12.5C25,19.4,19.4,25,12.5,25z"/>
</g>
</svg>
