<?xml version="1.0" encoding="utf-8"?>
<!-- Generator: Adobe Illustrator 18.1.1, SVG Export Plug-In . SVG Version: 6.00 Build 0)  -->
<svg version="1.1" id="Layer_1" xmlns="http://www.w3.org/2000/svg" xmlns:xlink="http://www.w3.org/1999/xlink" x="0px" y="0px"
	 viewBox="0 0 33.1 22.4" enable-background="new 0 0 33.1 22.4" xml:space="preserve">
<g>
	<path fill="#C4698B" d="M28.8,20.4H2.4c-1,0-1.9-0.9-1.9-1.9V2.4c0-1,0.8-1.9,1.9-1.9h26.5c1,0,1.9,0.9,1.9,1.9v16.1
		C30.7,19.5,29.9,20.4,28.8,20.4z"/>
	<path fill="#FFFFFF" d="M26.4,7.3h-3.9V4.9h3.9V7.3z M27.1,3.5h-5.3c-0.4,0-0.7,0.3-0.7,0.7V8c0,0.4,0.3,0.7,0.7,0.7h5.3
		c0.4,0,0.7-0.3,0.7-0.7V4.2C27.8,3.8,27.5,3.5,27.1,3.5z"/>
	<path fill="#FFFFFF" d="M12.7,3.5H4.1c-0.4,0-0.7,0.3-0.7,0.7c0,0.4,0.3,0.7,0.7,0.7h8.6c0.4,0,0.7-0.3,0.7-0.7
		C13.4,3.8,13.1,3.5,12.7,3.5z"/>
	<path fill="#FFFFFF" d="M8.9,6.9H4.1c-0.4,0-0.7,0.3-0.7,0.7c0,0.4,0.3,0.7,0.7,0.7h4.7c0.4,0,0.7-0.3,0.7-0.7
		C9.6,7.2,9.2,6.9,8.9,6.9z"/>
	<path fill="#FFFFFF" d="M2.4,0h26.5c1.3,0,2.4,1.1,2.4,2.4v16.1c0,1.3-1.1,2.4-2.4,2.4H2.4c-1.3,0-2.4-1.1-2.4-2.4V2.4
		C0,1.1,1.1,0,2.4,0z M2.4,1C1.6,1,1,1.6,1,2.4v16.1c0,0.8,0.6,1.4,1.4,1.4h26.5c0.7,0,1.4-0.6,1.4-1.4V2.4c0-0.8-0.6-1.4-1.4-1.4
		H2.4"/>
	<path fill="#F36F5C" d="M32.4,14.4h-8.7c-0.4,0-0.7,0.3-0.7,0.7v6.6c0,0.4,0.3,0.7,0.7,0.7h8.7c0.4,0,0.7-0.3,0.7-0.7v-6.6
		C33.1,14.6,32.8,14.4,32.4,14.4z"/>
	<path fill="#354C5E" d="M28,9c-2.4,0-4.4,2-4.4,4.4v1.7H25v-1.7c0-1.7,1.3-3,3-3c1.7,0,3,1.3,3,3v1.7h1.4v-1.7C32.4,11,30.4,9,28,9
		z"/>
</g>
</svg>
