<?xml version="1.0" encoding="utf-8"?>
<!-- Generator: Adobe Illustrator 18.1.1, SVG Export Plug-In . SVG Version: 6.00 Build 0)  -->
<svg version="1.1" id="Layer_1" xmlns="http://www.w3.org/2000/svg" xmlns:xlink="http://www.w3.org/1999/xlink" x="0px" y="0px"
	 viewBox="0 0 25 25" enable-background="new 0 0 25 25" xml:space="preserve">
<g>
	<path fill="#EDF0F2" d="M12.5,1.2C6.3,1.2,1.2,6.3,1.2,12.5s5,11.3,11.3,11.3c6.2,0,11.3-5,11.3-11.3C23.7,6.3,18.7,1.2,12.5,1.2z
		 M12.5,25C5.6,25,0,19.4,0,12.5C0,5.6,5.6,0,12.5,0C19.4,0,25,5.6,25,12.5C25,19.4,19.4,25,12.5,25z"/>
	<polygon fill="#EDF0F2" points="12.7,2.7 14.8,9.2 21.7,9.2 16.1,13.2 18.3,19.8 12.7,15.8 7.1,19.8 9.3,13.2 3.7,9.2 10.6,9.2 	
		"/>
</g>
</svg>
