<?xml version="1.0" encoding="utf-8"?>
<!-- Generator: Adobe Illustrator 18.1.1, SVG Export Plug-In . SVG Version: 6.00 Build 0)  -->
<svg version="1.1" id="Layer_1" xmlns="http://www.w3.org/2000/svg" xmlns:xlink="http://www.w3.org/1999/xlink" x="0px" y="0px"
	 viewBox="0 21.3 850.4 807.9" enable-background="new 0 21.3 850.4 807.9" xml:space="preserve">
<path d="M425.2,99.4l80.7,239l5.7,17h17.9h247.6L580,507.8l-13.7,10.6l5.1,16.5l71.9,233.7L439.2,630.6l-14-9.5l-14,9.5L207.1,768.7
	L279,535l5.1-16.5l-13.7-10.6L73.2,355.5h247.6h17.9l5.7-17L425.2,99.4 M425.2,21.3L320.8,330.5H0l255.1,197.1l-92.8,301.5
	l262.8-177.8L688,829.1l-92.8-301.5l255.1-197.1H529.6L425.2,21.3L425.2,21.3z M850.4,330.5L850.4,330.5L850.4,330.5z"/>
</svg>
