<?xml version="1.0" encoding="utf-8"?>
<!-- Generator: Adobe Illustrator 18.1.1, SVG Export Plug-In . SVG Version: 6.00 Build 0)  -->
<svg version="1.1" id="Layer_1" xmlns="http://www.w3.org/2000/svg" xmlns:xlink="http://www.w3.org/1999/xlink" x="0px" y="0px"
	 viewBox="0 0 553.4 488.8" enable-background="new 0 0 553.4 488.8" xml:space="preserve">
<g>
	<path d="M15,185h59.7c8.3,0,15-6.7,15-15v0c0-8.3-6.7-15-15-15H15c-8.3,0-15,6.7-15,15v0C0,178.3,6.7,185,15,185z"/>
	<path d="M15,272.6h59.7c8.3,0,15-6.7,15-15v0c0-8.3-6.7-15-15-15H15c-8.3,0-15,6.7-15,15v0C0,265.9,6.7,272.6,15,272.6z"/>
	<path d="M15,360.2h59.7c8.3,0,15-6.7,15-15v0c0-8.3-6.7-15-15-15H15c-8.3,0-15,6.7-15,15v0C0,353.5,6.7,360.2,15,360.2z"/>
	<g>
		<path d="M367.4,37.6l79.1,72.2l28.3-31c7.6-8.3,7-21.1-1.3-28.7L424.5,5.3c-8.3-7.6-21.1-7-28.7,1.3L367.4,37.6z"/>
		<path d="M354.5,51.8L179.5,243.3l-43,109.1c-4.2,10.7,7,21,17.3,15.8l104.7-52.6L433.5,124L354.5,51.8z M183.5,311.8l10.6-29
			c1.2-3.2,5.2-4.2,7.7-1.9l17.3,15.8c2.5,2.3,1.9,6.4-1.2,7.8L190,317.7C186.1,319.5,182,315.8,183.5,311.8z"/>
	</g>
	<g>
		<path d="M391.8,188.6v258.1c0,9.5-7.7,17.2-17.2,17.2H74.8c-9.5,0-17.2-7.7-17.2-17.2V373H32.1v73.7c0,23.6,19.2,42.8,42.8,42.8
			h299.8c23.6,0,42.8-19.2,42.8-42.8V160.6L391.8,188.6z"/>
		<path d="M57.7,142.2V76c0-9.5,7.7-17.2,17.2-17.2h255.9l23.4-25.6H74.8c-23.6,0-42.8,19.2-42.8,42.8v66.3H57.7z"/>
		<rect x="32.1" y="197.8" width="25.6" height="32.1"/>
		<rect x="32.1" y="285.4" width="25.6" height="32.1"/>
	</g>
</g>
</svg>
