<?xml version="1.0" encoding="utf-8"?>
<!-- Generator: Adobe Illustrator 18.1.1, SVG Export Plug-In . SVG Version: 6.00 Build 0)  -->
<svg version="1.1" id="Layer_1" xmlns="http://www.w3.org/2000/svg" xmlns:xlink="http://www.w3.org/1999/xlink" x="0px" y="0px"
	 viewBox="0 0 33.1 22.4" enable-background="new 0 0 33.1 22.4" xml:space="preserve">
<g>
	<path fill="#C4698B" d="M28.8,20.4H2.4c-1,0-1.9-0.9-1.9-1.9V2.4c0-1,0.8-1.9,1.9-1.9h26.5c1,0,1.9,0.9,1.9,1.9v16.1
		C30.7,19.5,29.9,20.4,28.8,20.4z"/>
	<path fill="#FFFFFF" d="M2.4,0h26.5c1.3,0,2.4,1.1,2.4,2.4v16.1c0,1.3-1.1,2.4-2.4,2.4H2.4c-1.3,0-2.4-1.1-2.4-2.4V2.4
		C0,1.1,1.1,0,2.4,0z M2.4,1C1.6,1,1,1.6,1,2.4v16.1c0,0.8,0.6,1.4,1.4,1.4h26.5c0.7,0,1.4-0.6,1.4-1.4V2.4c0-0.8-0.6-1.4-1.4-1.4
		H2.4"/>
	<path fill="#FFFFFF" d="M12.7,3.5H4.1c-0.4,0-0.7,0.3-0.7,0.7c0,0.4,0.3,0.7,0.7,0.7h8.6c0.4,0,0.7-0.3,0.7-0.7
		C13.4,3.8,13.1,3.5,12.7,3.5z"/>
	<path fill="#FFFFFF" d="M8.9,6.9H4.1c-0.4,0-0.7,0.3-0.7,0.7c0,0.4,0.3,0.7,0.7,0.7h4.7c0.4,0,0.7-0.3,0.7-0.7
		C9.6,7.2,9.2,6.9,8.9,6.9z"/>
	<path fill="#FFFFFF" d="M17.7,15.7h1v-3.5h1.2v-0.8h-3.4v0.8h1.2V15.7z M14.1,15.7h1v-4.3h-1V15.7z M8.9,15.7h1l0.3-1h1.3l0.3,1h1
		l-1.4-4.3h-1.2L8.9,15.7z M10.5,13.5c0.1-0.4,0.2-0.9,0.3-1.4h0c0.1,0.5,0.2,1,0.4,1.4l0.1,0.4h-0.9L10.5,13.5z M3.6,15.7h1.2
		l0.4-2c0.1-0.3,0.1-0.7,0.2-1h0c0,0.3,0.1,0.7,0.2,1l0.4,2h1.2L8,11.3H7.1l-0.3,2c-0.1,0.4-0.1,0.9-0.2,1.4h0
		c-0.1-0.5-0.2-0.9-0.3-1.4l-0.5-2H5l-0.5,2c-0.1,0.5-0.2,0.9-0.3,1.4h0c-0.1-0.5-0.1-0.9-0.2-1.4l-0.3-2h-1L3.6,15.7z"/>
	<path fill="#E92729" d="M26.9,10.1c0.4,0,0.8,0,1.2,0.1c0.4,0.1,0.8,0.2,1.2,0.4c0.4,0.2,0.7,0.3,1.1,0.6c0.3,0.2,0.6,0.5,0.9,0.8
		c0.3,0.3,0.5,0.6,0.8,0.9s0.4,0.7,0.6,1.1s0.3,0.8,0.3,1.2c0.1,0.4,0.1,0.8,0.1,1.2s0,0.8-0.1,1.2c-0.1,0.4-0.2,0.8-0.3,1.2
		c-0.2,0.4-0.3,0.7-0.6,1.1c-0.2,0.3-0.5,0.6-0.8,0.9c-0.3,0.3-0.6,0.5-0.9,0.8c-0.3,0.2-0.7,0.4-1.1,0.6c-0.4,0.2-0.8,0.3-1.2,0.4
		c-0.4,0.1-0.8,0.1-1.2,0.1c-0.4,0-0.8,0-1.2-0.1c-0.4-0.1-0.8-0.2-1.2-0.4c-0.4-0.2-0.7-0.3-1.1-0.6c-0.3-0.2-0.6-0.5-0.9-0.8
		c-0.3-0.3-0.5-0.6-0.8-0.9c-0.2-0.3-0.4-0.7-0.6-1.1c-0.2-0.4-0.3-0.8-0.4-1.2c-0.1-0.4-0.1-0.8-0.1-1.2s0-0.8,0.1-1.2
		c0.1-0.4,0.2-0.8,0.4-1.2s0.3-0.7,0.6-1.1s0.5-0.6,0.8-0.9c0.3-0.3,0.6-0.5,0.9-0.8c0.3-0.2,0.7-0.4,1.1-0.6
		c0.4-0.2,0.8-0.3,1.2-0.4C26.1,10.1,26.5,10.1,26.9,10.1z"/>
	<rect x="23.6" y="15" fill="#FFFFFF" width="6.5" height="2.4"/>
</g>
</svg>
